<svg xmlns="http://www.w3.org/2000/svg" viewBox="-102 -33 1209 1209" width="1209" height="1209">
  <!-- Sentinel Nudge logo (potrace multi-passes, source HD, viewBox maximise ~88%) -->
  <!-- Pass 1 : silhouette navy #1E3A5F -->
  <path d="M 478 4.609 C 472.775 6.430, 467.662 8.423, 466.637 9.039 C 465.612 9.655, 463.845 10.337, 462.710 10.556 C 461.575 10.774, 460.389 11.301, 460.073 11.727 C 459.073 13.076, 453.122 17, 452.076 17 C 451.523 17, 450.589 17.900, 450 19 C 449.411 20.100, 448.552 21, 448.091 21 C 447.630 21, 445.284 22.800, 442.877 25 C 440.470 27.200, 438.046 29, 437.491 29 C 436.936 29, 435.919 29.900, 435.232 31 C 434.545 32.100, 433.565 33, 433.053 33 C 432.542 33, 430.645 34.350, 428.839 36 C 427.032 37.650, 425.232 39, 424.839 39 C 424.445 39, 422.645 40.350, 420.839 42 C 419.032 43.650, 416.980 45, 416.277 45 C 415.575 45, 415 45.367, 415 45.815 C 415 46.263, 413.425 47.381, 411.500 48.299 C 409.575 49.217, 408 50.425, 408 50.984 C 408 51.543, 407.325 52, 406.500 52 C 405.675 52, 405 52.450, 405 53 C 405 53.550, 404.531 54, 403.958 54 C 403.385 54, 401.950 54.900, 400.770 56 C 399.589 57.100, 398.033 58, 397.311 58 C 396.590 58, 396 58.450, 396 59 C 396 59.550, 395.363 60, 394.583 60 C 393.804 60, 393.017 60.406, 392.833 60.902 C 392.650 61.399, 388.675 64.094, 384 66.892 C 379.325 69.690, 374.621 72.659, 373.547 73.490 C 372.472 74.320, 371.010 75, 370.297 75 C 369.583 75, 369 75.360, 369 75.799 C 369 76.239, 367.425 77.168, 365.500 77.864 C 363.575 78.560, 362 79.577, 362 80.124 C 362 80.671, 361.550 80.840, 361 80.500 C 360.450 80.160, 360 80.310, 360 80.833 C 360 81.355, 358.875 82.066, 357.500 82.411 C 356.125 82.756, 355 83.506, 355 84.078 C 355 84.650, 354.550 84.840, 354 84.500 C 353.450 84.160, 353 84.290, 353 84.789 C 353 85.288, 351.087 86.528, 348.750 87.544 C 346.413 88.560, 343.262 90.234, 341.750 91.264 C 340.238 92.294, 338.993 92.768, 338.985 92.318 C 338.976 91.868, 338.639 92.007, 338.235 92.626 C 337.831 93.246, 332.550 96.095, 326.500 98.959 C 320.450 101.822, 313.813 105.020, 311.750 106.066 C 309.688 107.112, 308 107.721, 308 107.420 C 308 107.119, 306.313 107.742, 304.250 108.804 C 302.188 109.867, 299.375 111.220, 298 111.811 C 296.625 112.402, 292.899 114.037, 289.720 115.443 C 286.542 116.849, 283.475 118, 282.906 118 C 282.337 118, 279.650 118.900, 276.935 120 C 274.221 121.100, 269.681 122.942, 266.846 124.094 C 264.011 125.246, 260.537 126.398, 259.127 126.653 C 257.716 126.909, 255.986 127.597, 255.281 128.182 C 254.576 128.766, 254 128.970, 254 128.633 C 254 128.296, 250.287 129.378, 245.750 131.036 C 241.213 132.695, 236.256 134.273, 234.735 134.543 C 233.215 134.813, 229.840 135.757, 227.235 136.642 C 224.631 137.526, 222.050 138.343, 221.500 138.456 C 220.950 138.570, 218.475 139.238, 216 139.940 C 213.525 140.643, 210.375 141.398, 209 141.619 C 206.790 141.974, 203.544 142.730, 200.500 143.598 C 196.603 144.709, 190.948 145.965, 187 146.595 C 185.075 146.902, 181.475 147.608, 179 148.163 C 176.525 148.718, 173.375 149.368, 172 149.607 C 170.625 149.846, 168.150 150.333, 166.500 150.690 C 164.850 151.048, 162.825 151.449, 162 151.583 C 158.762 152.110, 152.820 153.027, 149.250 153.551 C 147.188 153.854, 144.375 154.288, 143 154.516 C 141.625 154.744, 138.250 155.183, 135.500 155.492 C 132.750 155.802, 128.925 156.256, 127 156.501 C 116.212 157.878, 113.429 158.138, 94.500 159.537 C 78.598 160.711, 73.179 161.844, 64.500 165.807 C 57.283 169.103, 53.377 171.432, 46.132 176.759 C 42.880 179.150, 35.718 186.147, 34.500 188.122 C 33.950 189.014, 31.649 192.389, 29.387 195.622 C 24.532 202.560, 19.780 211.747, 16.910 219.747 C 15.774 222.911, 14.587 226.175, 14.272 227 C 13.492 229.039, 13.028 230.972, 12.508 234.354 C 12.266 235.924, 11.837 237.949, 11.554 238.854 C 10.866 241.051, 10.072 247.166, 9.521 254.500 C 9.273 257.800, 8.800 263.200, 8.470 266.500 C 7.535 275.834, 6.451 292.430, 5.434 313 C 4.664 328.566, 4.642 385.889, 5.402 396 C 5.712 400.125, 6.230 409.350, 6.554 416.500 C 6.877 423.650, 7.314 431.300, 7.523 433.500 C 7.733 435.700, 8.197 441.325, 8.555 446 C 9.647 460.244, 10.632 470.033, 11.451 474.778 C 11.710 476.275, 12.157 479.975, 12.445 483 C 12.733 486.025, 13.198 489.625, 13.478 491 C 13.759 492.375, 14.209 495.750, 14.478 498.500 C 14.748 501.250, 15.164 504.455, 15.402 505.623 C 15.994 508.516, 17.015 514.779, 17.572 518.919 C 18.212 523.686, 18.997 528.228, 19.486 530 C 19.713 530.825, 20.155 533.318, 20.467 535.540 C 20.779 537.762, 21.256 540.687, 21.527 542.040 C 21.799 543.393, 22.257 545.850, 22.546 547.500 C 22.835 549.150, 23.296 551.241, 23.570 552.146 C 23.844 553.051, 24.257 555.076, 24.486 556.646 C 24.958 559.874, 25.686 563.365, 26.400 565.830 C 26.666 566.748, 27.124 569.075, 27.418 571 C 27.711 572.925, 28.384 575.971, 28.911 577.768 C 29.439 579.566, 29.863 581.141, 29.854 581.268 C 29.825 581.653, 31.069 586.979, 33.555 597.118 C 34.852 602.408, 36.119 607.808, 36.370 609.118 C 37.231 613.605, 39.263 621.513, 40.837 626.500 C 42.163 630.700, 47.968 643.349, 48.859 643.978 C 49.264 644.265, 50.627 645.975, 51.886 647.778 C 54.270 651.190, 63.362 656.513, 65.037 655.477 C 65.567 655.150, 66 655.262, 66 655.727 C 66 656.645, 65.847 656.623, 77.479 657.366 C 82.497 657.687, 85.698 657.488, 86.104 656.831 C 86.460 656.256, 87.594 656.054, 88.625 656.381 C 89.996 656.816, 95.119 668.173, 107.678 698.618 C 122.142 733.683, 124.671 740.554, 123.687 742.130 C 123.045 743.158, 122 744, 121.366 744 C 120.733 744, 119.955 744.675, 119.638 745.500 C 119.322 746.325, 118.384 747, 117.554 747 C 116.725 747, 115.259 748.237, 114.297 749.750 C 113.335 751.263, 111.975 752.860, 111.274 753.300 C 110.573 753.740, 110 754.715, 110 755.466 C 110 756.218, 109.645 756.983, 109.210 757.167 C 108.776 757.350, 107.498 759.975, 106.370 763 C 104.814 767.174, 104.379 770.429, 104.565 776.500 C 104.861 786.120, 104.959 786.570, 107.778 791.348 C 109 793.420, 110 795.470, 110 795.904 C 110 796.339, 110.891 797.721, 111.979 798.976 C 113.068 800.231, 113.758 801.582, 113.514 801.978 C 113.269 802.373, 113.876 803.563, 114.862 804.622 C 115.848 805.680, 117.494 808.448, 118.520 810.773 C 119.546 813.098, 120.748 815, 121.192 815 C 121.637 815, 122 815.605, 122 816.344 C 122 817.084, 123.099 818.968, 124.443 820.532 C 125.787 822.096, 126.660 823.741, 126.384 824.188 C 126.108 824.634, 126.382 825, 126.993 825 C 127.604 825, 128.575 826.350, 129.150 828 C 129.725 829.650, 130.628 831, 131.157 831 C 131.685 831, 131.869 831.403, 131.565 831.895 C 131.260 832.388, 131.684 833.048, 132.506 833.364 C 133.328 833.679, 134 834.626, 134 835.469 C 134 836.311, 134.401 837, 134.892 837 C 135.382 837, 136.066 838.125, 136.411 839.500 C 136.756 840.875, 137.480 842, 138.019 842 C 138.559 842, 139 842.675, 139 843.500 C 139 844.325, 139.398 845, 139.883 845 C 140.369 845, 141.031 845.788, 141.354 846.750 C 142.190 849.240, 144.287 852.364, 145.750 853.300 C 146.437 853.740, 147 854.752, 147 855.550 C 147 856.347, 147.477 857, 148.059 857 C 148.641 857, 148.869 857.403, 148.565 857.895 C 148.260 858.388, 148.712 859.059, 149.569 859.388 C 150.426 859.717, 150.845 860.442, 150.500 861 C 150.155 861.558, 150.577 862.284, 151.437 862.614 C 152.296 862.944, 153 863.793, 153 864.500 C 153 865.207, 153.704 866.056, 154.563 866.386 C 155.423 866.716, 155.847 867.439, 155.504 867.993 C 155.162 868.547, 155.340 869, 155.899 869 C 156.458 869, 158.163 871.128, 159.687 873.730 C 162.226 878.061, 163.215 879.364, 167.546 884.084 C 168.346 884.955, 169 886.144, 169 886.727 C 169 887.309, 169.675 888.045, 170.500 888.362 C 171.325 888.678, 172 889.578, 172 890.362 C 172 891.145, 172.675 892.045, 173.500 892.362 C 174.325 892.678, 175 893.578, 175 894.362 C 175 895.145, 175.675 896.045, 176.500 896.362 C 177.325 896.678, 178 897.626, 178 898.469 C 178 899.311, 178.461 900, 179.025 900 C 179.588 900, 180.477 901.125, 181 902.500 C 181.523 903.875, 182.412 905, 182.975 905 C 183.539 905, 184 905.427, 184 905.949 C 184 906.472, 186.025 909.042, 188.500 911.663 C 190.975 914.283, 193 916.995, 193 917.690 C 193 918.385, 194.125 919.691, 195.500 920.592 C 196.875 921.493, 198 922.676, 198 923.221 C 198 923.766, 199.125 925.097, 200.500 926.179 C 201.875 927.260, 203 928.576, 203 929.103 C 203 929.630, 204.575 931.444, 206.500 933.134 C 208.425 934.824, 210 936.680, 210 937.258 C 210 937.835, 211.800 939.849, 214 941.732 C 216.200 943.615, 218 945.604, 218 946.152 C 218 946.699, 220.475 949.409, 223.500 952.174 C 226.525 954.939, 229.018 957.718, 229.041 958.350 C 229.063 958.983, 235.440 965.575, 243.213 973 C 250.985 980.425, 260.863 989.987, 265.164 994.250 C 269.466 998.512, 273.398 1002, 273.904 1002 C 274.409 1002, 275.958 1003.350, 277.347 1005 C 278.735 1006.650, 280.310 1008, 280.847 1008 C 281.383 1008, 282.958 1009.350, 284.347 1011 C 285.735 1012.650, 287.310 1014, 287.847 1014 C 288.383 1014, 289.958 1015.350, 291.347 1017 C 292.735 1018.650, 294.237 1020.005, 294.685 1020.011 C 295.133 1020.017, 297.639 1021.994, 300.253 1024.405 C 302.867 1026.816, 305.679 1029.047, 306.503 1029.363 C 307.326 1029.679, 308 1030.401, 308 1030.969 C 308 1031.536, 308.671 1032, 309.492 1032 C 310.312 1032, 311.545 1032.900, 312.232 1034 C 312.919 1035.100, 313.898 1036, 314.407 1036 C 314.916 1036, 316.045 1036.654, 316.916 1037.454 C 321.684 1041.829, 322.801 1042.710, 324.326 1043.295 C 325.247 1043.648, 326 1044.401, 326 1044.969 C 326 1045.536, 326.609 1046, 327.354 1046 C 328.099 1046, 329.922 1047.125, 331.405 1048.500 C 332.889 1049.875, 334.307 1051, 334.556 1051 C 335.066 1051, 358.526 1067.295, 361.261 1069.549 C 362.230 1070.347, 363.468 1071, 364.011 1071 C 364.555 1071, 365 1071.450, 365 1072 C 365 1072.550, 365.536 1073, 366.192 1073 C 367.450 1073, 383.064 1082.864, 384.112 1084.320 C 384.448 1084.788, 384.996 1085.020, 385.329 1084.835 C 385.663 1084.651, 386.850 1085.283, 387.968 1086.240 C 389.085 1087.197, 390 1087.765, 390 1087.501 C 390 1087.237, 392.948 1088.826, 396.551 1091.031 C 400.154 1093.237, 409.492 1098.489, 417.301 1102.702 C 425.111 1106.916, 431.775 1110.770, 432.112 1111.267 C 432.448 1111.764, 433.051 1112.051, 433.451 1111.905 C 434.414 1111.553, 466.287 1127.210, 467.235 1128.500 C 467.639 1129.050, 467.976 1129.151, 467.985 1128.724 C 467.993 1128.298, 469.345 1128.644, 470.990 1129.495 C 472.634 1130.345, 474.213 1131.022, 474.500 1131 C 474.787 1130.978, 476.479 1131.737, 478.260 1132.688 C 480.042 1133.638, 481.732 1134.435, 482.015 1134.458 C 483.164 1134.552, 496.518 1140.432, 496.749 1140.946 C 497.040 1141.594, 506.361 1141.392, 510 1140.659 C 511.375 1140.382, 514.900 1139.625, 517.833 1138.977 C 520.766 1138.329, 523.691 1137.709, 524.333 1137.600 C 527.314 1137.093, 537.558 1133.540, 538.037 1132.847 C 538.333 1132.420, 544.858 1129.057, 552.537 1125.375 C 560.217 1121.693, 566.651 1118.300, 566.835 1117.834 C 567.020 1117.368, 567.582 1117.242, 568.085 1117.553 C 568.588 1117.864, 569 1117.676, 569 1117.137 C 569 1116.597, 570.575 1115.635, 572.500 1115 C 574.425 1114.365, 576 1113.403, 576 1112.863 C 576 1112.324, 576.450 1112.160, 577 1112.500 C 577.550 1112.840, 578 1112.641, 578 1112.059 C 578 1111.477, 578.606 1111, 579.347 1111 C 580.088 1111, 581.721 1110.109, 582.976 1109.021 C 584.231 1107.932, 585.650 1107.284, 586.129 1107.580 C 586.608 1107.876, 587 1107.641, 587 1107.059 C 587 1106.477, 587.675 1106, 588.500 1106 C 589.325 1106, 590 1105.580, 590 1105.067 C 590 1104.107, 593.894 1102.442, 595.278 1102.811 C 595.706 1102.925, 596.315 1102.342, 596.633 1101.515 C 596.950 1100.688, 597.612 1100.260, 598.105 1100.565 C 598.597 1100.869, 599 1100.615, 599 1100 C 599 1099.385, 599.453 1099.162, 600.007 1099.504 C 600.561 1099.847, 601.283 1099.426, 601.612 1098.569 C 601.941 1097.712, 602.612 1097.260, 603.105 1097.565 C 603.597 1097.869, 604 1097.615, 604 1097 C 604 1096.385, 604.453 1096.162, 605.007 1096.504 C 605.561 1096.847, 606.283 1096.426, 606.612 1095.569 C 606.941 1094.712, 607.552 1094.223, 607.971 1094.482 C 608.390 1094.741, 609.538 1094.063, 610.521 1092.976 C 611.505 1091.889, 612.915 1091, 613.655 1091 C 614.395 1091, 615 1090.475, 615 1089.833 C 615 1089.192, 615.273 1088.940, 615.606 1089.273 C 615.940 1089.607, 617.150 1089.007, 618.295 1087.940 C 619.440 1086.873, 620.967 1086, 621.689 1086 C 622.410 1086, 623 1085.559, 623 1085.019 C 623 1084.480, 624.125 1083.756, 625.500 1083.411 C 626.875 1083.066, 628 1082.382, 628 1081.892 C 628 1081.401, 628.675 1081, 629.500 1081 C 630.325 1081, 631 1080.550, 631 1080 C 631 1079.450, 631.675 1079, 632.500 1079 C 633.325 1079, 634 1078.523, 634 1077.941 C 634 1077.359, 634.453 1077.162, 635.007 1077.504 C 635.561 1077.847, 636.284 1077.423, 636.614 1076.563 C 636.944 1075.704, 637.841 1075, 638.607 1075 C 639.373 1075, 640 1074.550, 640 1074 C 640 1073.450, 640.675 1073, 641.500 1073 C 642.325 1073, 643 1072.550, 643 1072 C 643 1071.450, 643.689 1071, 644.531 1071 C 645.374 1071, 646.321 1070.328, 646.636 1069.506 C 646.952 1068.684, 647.616 1068.262, 648.112 1068.569 C 648.608 1068.876, 649.284 1068.423, 649.614 1067.563 C 649.944 1066.704, 650.841 1066, 651.607 1066 C 652.373 1066, 653 1065.523, 653 1064.941 C 653 1064.359, 653.453 1064.162, 654.007 1064.504 C 654.561 1064.847, 655.283 1064.426, 655.612 1063.569 C 655.941 1062.712, 656.590 1062.247, 657.055 1062.534 C 657.519 1062.821, 658.388 1062.143, 658.985 1061.028 C 659.582 1059.913, 660.730 1059, 661.535 1059 C 662.341 1059, 663 1058.550, 663 1058 C 663 1057.450, 663.575 1057, 664.278 1057 C 664.981 1057, 666.299 1056.213, 667.207 1055.250 C 669.563 1052.754, 671.245 1051.497, 673.250 1050.731 C 674.212 1050.363, 675 1049.599, 675 1049.031 C 675 1048.464, 675.627 1048, 676.393 1048 C 677.159 1048, 678.045 1047.325, 678.362 1046.500 C 678.678 1045.675, 679.626 1045, 680.469 1045 C 681.311 1045, 682 1044.550, 682 1044 C 682 1043.450, 682.547 1043, 683.215 1043 C 683.883 1043, 685.345 1042.121, 686.465 1041.047 C 691.185 1036.519, 692.860 1035.193, 693.303 1035.636 C 693.561 1035.894, 694.676 1034.957, 695.780 1033.553 C 696.884 1032.149, 698.270 1031, 698.859 1031 C 699.448 1031, 700.411 1030.100, 701 1029 C 701.589 1027.900, 702.714 1027, 703.500 1027 C 704.286 1027, 705.411 1026.100, 706 1025 C 706.589 1023.900, 707.699 1023, 708.467 1023 C 709.235 1023, 710.829 1021.645, 712.008 1019.988 C 713.188 1018.332, 714.540 1017.216, 715.013 1017.508 C 715.486 1017.801, 717.327 1016.231, 719.104 1014.020 C 720.881 1011.809, 722.787 1010, 723.339 1010 C 724.334 1010, 726.596 1007.932, 736.733 997.754 C 739.610 994.864, 742.331 992.500, 742.778 992.500 C 743.738 992.500, 783.500 952.839, 783.500 951.881 C 783.500 951.521, 785.525 949.375, 788 947.113 C 790.475 944.850, 792.500 942.625, 792.500 942.168 C 792.500 941.711, 794.300 939.629, 796.500 937.542 C 798.700 935.454, 800.398 933.384, 800.273 932.942 C 800.148 932.500, 801.498 930.910, 803.273 929.408 C 805.048 927.907, 806.396 926.326, 806.269 925.897 C 806.142 925.467, 807.139 924.249, 808.485 923.190 C 809.831 922.132, 810.687 921.020, 810.387 920.721 C 810.088 920.421, 811.210 919.165, 812.882 917.929 C 814.554 916.693, 815.724 915.363, 815.483 914.973 C 815.242 914.583, 816.375 913.245, 818 912 C 819.625 910.755, 820.722 909.360, 820.439 908.901 C 820.155 908.441, 820.840 907.492, 821.961 906.792 C 823.083 906.092, 824 905.051, 824 904.480 C 824 903.909, 824.876 902.810, 825.946 902.039 C 827.017 901.267, 827.679 900.290, 827.418 899.868 C 827.157 899.446, 827.895 898.591, 829.058 897.969 C 830.220 897.347, 830.911 896.577, 830.592 896.259 C 830.273 895.940, 830.917 895.046, 832.023 894.271 C 833.129 893.497, 833.788 892.467, 833.489 891.982 C 833.189 891.497, 833.869 890.605, 835 890 C 836.131 889.395, 836.806 888.495, 836.500 888 C 836.194 887.505, 836.869 886.605, 838 886 C 839.131 885.395, 839.811 884.503, 839.511 884.018 C 839.212 883.533, 839.974 882.431, 841.206 881.568 C 842.437 880.706, 843.007 879.986, 842.473 879.970 C 841.938 879.953, 842.288 879.481, 843.250 878.920 C 844.212 878.359, 845 877.296, 845 876.557 C 845 875.818, 845.704 874.944, 846.563 874.614 C 847.423 874.284, 847.845 873.558, 847.500 873 C 847.155 872.442, 847.574 871.717, 848.431 871.388 C 849.288 871.059, 849.769 870.435, 849.500 870 C 849.231 869.565, 849.712 868.941, 850.569 868.612 C 851.426 868.283, 851.866 867.592, 851.547 867.075 C 851.228 866.559, 851.871 865.503, 852.977 864.729 C 854.083 863.954, 854.701 863.034, 854.351 862.684 C 854 862.334, 854.451 861.764, 855.351 861.419 C 856.252 861.073, 856.738 860.384, 856.431 859.888 C 856.124 859.392, 856.574 858.717, 857.431 858.388 C 858.288 858.059, 858.738 857.384, 858.431 856.888 C 858.124 856.392, 858.574 855.717, 859.431 855.388 C 860.288 855.059, 860.738 854.384, 860.431 853.888 C 860.124 853.392, 860.574 852.717, 861.431 852.388 C 862.288 852.059, 862.769 851.435, 862.500 851 C 862.231 850.565, 862.712 849.941, 863.569 849.612 C 864.426 849.283, 864.876 848.608, 864.569 848.112 C 864.262 847.616, 864.712 846.941, 865.569 846.612 C 866.426 846.283, 866.847 845.561, 866.504 845.007 C 866.162 844.453, 866.385 844, 867 844 C 867.615 844, 867.869 843.597, 867.565 843.105 C 867.260 842.612, 867.712 841.941, 868.569 841.612 C 869.426 841.283, 869.876 840.608, 869.569 840.112 C 869.262 839.616, 869.712 838.941, 870.569 838.612 C 871.426 838.283, 871.847 837.561, 871.504 837.007 C 871.162 836.453, 871.359 836, 871.941 836 C 872.523 836, 873 835.325, 873 834.500 C 873 833.675, 873.477 833, 874.059 833 C 874.641 833, 874.869 832.597, 874.565 832.105 C 874.260 831.612, 874.712 830.941, 875.569 830.612 C 876.426 830.283, 876.876 829.608, 876.569 829.112 C 876.262 828.616, 876.712 827.941, 877.569 827.612 C 878.426 827.283, 878.847 826.561, 878.504 826.007 C 878.162 825.453, 878.385 825, 879 825 C 879.615 825, 879.882 824.618, 879.594 824.151 C 879.305 823.685, 879.927 822.383, 880.974 821.258 C 882.022 820.133, 882.607 818.940, 882.273 818.606 C 881.940 818.273, 882.218 818, 882.892 818 C 883.566 818, 883.838 817.547, 883.496 816.993 C 883.153 816.439, 883.574 815.717, 884.431 815.388 C 885.288 815.059, 885.740 814.388, 885.435 813.895 C 885.131 813.403, 885.385 813, 886 813 C 886.615 813, 886.840 812.550, 886.500 812 C 886.160 811.450, 886.385 811, 887 811 C 887.615 811, 887.869 810.597, 887.565 810.105 C 887.260 809.612, 887.712 808.941, 888.569 808.612 C 889.426 808.283, 889.847 807.561, 889.504 807.007 C 889.162 806.453, 889.385 806, 890 806 C 890.615 806, 890.877 805.610, 890.583 805.134 C 890.288 804.657, 890.926 803.472, 892 802.500 C 893.074 801.528, 893.712 800.343, 893.417 799.866 C 893.123 799.390, 893.385 799, 894 799 C 894.615 799, 894.840 798.550, 894.500 798 C 894.160 797.450, 894.385 797, 895 797 C 895.615 797, 895.840 796.550, 895.500 796 C 895.160 795.450, 895.385 795, 896 795 C 896.615 795, 896.840 794.550, 896.500 794 C 896.160 793.450, 896.385 793, 897 793 C 897.615 793, 897.840 792.550, 897.500 792 C 897.160 791.450, 897.286 791, 897.780 791 C 898.745 791, 901.464 785.994, 901.175 784.750 C 901.079 784.337, 901.477 784, 902.059 784 C 902.641 784, 902.840 783.550, 902.500 783 C 902.160 782.450, 902.385 782, 903 782 C 903.615 782, 903.840 781.550, 903.500 781 C 903.160 780.450, 903.385 780, 904 780 C 904.615 780, 904.840 779.550, 904.500 779 C 904.160 778.450, 904.385 778, 905 778 C 905.615 778, 905.840 777.550, 905.500 777 C 905.160 776.450, 905.385 776, 906 776 C 906.615 776, 906.840 775.550, 906.500 775 C 906.160 774.450, 906.385 774, 907 774 C 907.615 774, 907.840 773.550, 907.500 773 C 907.160 772.450, 907.385 772, 908 772 C 908.615 772, 908.840 771.550, 908.500 771 C 908.160 770.450, 908.385 770, 909 770 C 909.615 770, 909.840 769.550, 909.500 769 C 909.160 768.450, 909.385 768, 910 768 C 910.615 768, 910.840 767.550, 910.500 767 C 910.160 766.450, 910.385 766, 911 766 C 911.615 766, 911.840 765.550, 911.500 765 C 911.160 764.450, 911.385 764, 912 764 C 912.615 764, 912.840 763.550, 912.500 763 C 912.160 762.450, 912.385 762, 913 762 C 913.615 762, 913.840 761.550, 913.500 761 C 913.160 760.450, 913.385 760, 914 760 C 914.615 760, 914.840 759.550, 914.500 759 C 914.160 758.450, 914.385 758, 915 758 C 915.615 758, 915.840 757.550, 915.500 757 C 915.160 756.450, 915.385 756, 916 756 C 916.615 756, 916.840 755.550, 916.500 755 C 916.160 754.450, 916.385 754, 917 754 C 917.615 754, 917.840 753.550, 917.500 753 C 917.160 752.450, 917.385 752, 918 752 C 918.615 752, 918.840 751.550, 918.500 751 C 918.160 750.450, 918.407 750, 919.048 750 C 919.689 750, 919.955 749.325, 919.638 748.500 C 919.322 747.675, 919.525 747, 920.090 747 C 920.656 747, 920.840 746.550, 920.500 746 C 920.160 745.450, 920.385 745, 921 745 C 921.615 745, 921.840 744.550, 921.500 744 C 921.160 743.450, 921.385 743, 922 743 C 922.615 743, 922.840 742.550, 922.500 742 C 922.160 741.450, 922.385 741, 923 741 C 923.615 741, 923.840 740.550, 923.500 740 C 923.160 739.450, 923.407 739, 924.048 739 C 924.689 739, 924.955 738.325, 924.638 737.500 C 924.322 736.675, 924.525 736, 925.090 736 C 925.656 736, 925.840 735.550, 925.500 735 C 925.160 734.450, 925.385 734, 926 734 C 926.615 734, 926.859 733.581, 926.543 733.069 C 926.226 732.557, 926.432 731.851, 927 731.500 C 927.568 731.149, 927.774 730.443, 927.457 729.931 C 927.141 729.419, 927.385 729, 928 729 C 928.615 729, 928.840 728.550, 928.500 728 C 928.160 727.450, 928.385 727, 929 727 C 929.615 727, 929.859 726.581, 929.543 726.069 C 929.226 725.557, 929.432 724.851, 930 724.500 C 930.568 724.149, 930.774 723.443, 930.457 722.931 C 930.141 722.419, 930.385 722, 931 722 C 931.615 722, 931.840 721.550, 931.500 721 C 931.160 720.450, 931.385 720, 932 720 C 932.615 720, 932.840 719.550, 932.500 719 C 932.160 718.450, 932.385 718, 933 718 C 933.615 718, 933.859 717.581, 933.543 717.069 C 933.226 716.557, 933.432 715.851, 934 715.500 C 934.568 715.149, 934.774 714.443, 934.457 713.931 C 934.141 713.419, 934.344 713, 934.910 713 C 935.475 713, 935.678 712.325, 935.362 711.500 C 935.045 710.675, 935.311 710, 935.952 710 C 936.593 710, 936.859 709.581, 936.543 709.069 C 936.226 708.557, 936.432 707.851, 937 707.500 C 937.568 707.149, 937.774 706.443, 937.457 705.931 C 937.141 705.419, 937.385 705, 938 705 C 938.615 705, 938.859 704.581, 938.543 704.069 C 938.226 703.557, 938.432 702.851, 939 702.500 C 939.568 702.149, 939.774 701.443, 939.457 700.931 C 939.141 700.419, 939.385 700, 940 700 C 940.615 700, 940.859 699.581, 940.543 699.069 C 940.226 698.557, 940.432 697.851, 941 697.500 C 941.568 697.149, 941.774 696.443, 941.457 695.931 C 941.141 695.419, 941.407 695, 942.048 695 C 942.689 695, 942.955 694.325, 942.638 693.500 C 942.322 692.675, 942.525 692, 943.090 692 C 943.656 692, 943.859 691.581, 943.543 691.069 C 943.226 690.557, 943.432 689.851, 944 689.500 C 944.568 689.149, 944.774 688.443, 944.457 687.931 C 944.141 687.419, 944.385 687, 945 687 C 945.615 687, 945.840 686.550, 945.500 686 C 945.160 685.450, 945.407 685, 946.048 685 C 946.689 685, 946.960 684.339, 946.651 683.532 C 946.341 682.725, 946.525 681.794, 947.060 681.463 C 947.595 681.132, 947.793 680.474, 947.500 680 C 947.207 679.526, 947.432 678.851, 948 678.500 C 948.568 678.149, 948.793 677.474, 948.500 677 C 948.207 676.526, 948.432 675.851, 949 675.500 C 949.568 675.149, 949.774 674.443, 949.457 673.931 C 949.141 673.419, 949.407 673, 950.048 673 C 950.689 673, 950.955 672.325, 950.638 671.500 C 950.322 670.675, 950.485 670, 951 670 C 951.515 670, 951.678 669.325, 951.362 668.500 C 951.045 667.674, 951.332 667, 952 667 C 952.668 667, 952.955 666.326, 952.638 665.500 C 952.322 664.675, 952.547 664, 953.138 664 C 953.730 664, 953.955 663.325, 953.638 662.500 C 953.322 661.675, 953.525 661, 954.090 661 C 954.656 661, 954.859 660.581, 954.543 660.069 C 954.226 659.557, 954.405 658.868, 954.940 658.537 C 955.475 658.206, 955.659 657.275, 955.349 656.468 C 955.040 655.661, 955.270 655, 955.862 655 C 956.453 655, 956.678 654.325, 956.362 653.500 C 956.045 652.675, 956.270 652, 956.862 652 C 957.453 652, 957.678 651.325, 957.362 650.500 C 957.045 649.675, 957.270 649, 957.862 649 C 958.453 649, 958.678 648.325, 958.362 647.500 C 958.045 646.674, 958.332 646, 959 646 C 959.668 646, 959.960 645.339, 959.651 644.532 C 959.341 643.725, 959.498 642.810, 960 642.500 C 960.502 642.190, 960.659 641.275, 960.349 640.468 C 960.040 639.661, 960.332 639, 961 639 C 961.668 639, 961.955 638.326, 961.638 637.500 C 961.322 636.675, 961.485 636, 962 636 C 962.515 636, 962.696 635.371, 962.400 634.601 C 962.105 633.832, 962.325 632.917, 962.888 632.569 C 963.452 632.221, 963.659 631.275, 963.349 630.468 C 963.040 629.661, 963.332 629, 964 629 C 964.668 629, 964.955 628.326, 964.638 627.500 C 964.322 626.675, 964.485 626, 965 626 C 965.515 626, 965.678 625.325, 965.362 624.500 C 965.045 623.675, 965.314 623, 965.960 623 C 966.680 623, 966.889 622.225, 966.500 621 C 966.120 619.802, 966.320 619, 967 619 C 967.663 619, 967.882 618.204, 967.527 617.084 C 967.192 616.030, 967.394 614.874, 967.976 614.515 C 968.557 614.156, 968.770 613.437, 968.449 612.918 C 968.129 612.399, 968.564 610.576, 969.417 608.866 C 970.270 607.156, 970.743 605.393, 970.468 604.948 C 970.192 604.502, 970.405 603.868, 970.940 603.537 C 971.475 603.206, 971.659 602.275, 971.349 601.468 C 971.040 600.661, 971.242 600, 971.799 600 C 972.357 600, 972.577 599.100, 972.290 598 C 972.002 596.900, 972.227 596, 972.790 596 C 973.352 596, 973.591 595.151, 973.319 594.113 C 973.048 593.075, 973.295 591.936, 973.869 591.581 C 974.443 591.226, 974.677 590.321, 974.388 589.569 C 974.100 588.817, 974.325 587.917, 974.888 587.569 C 975.452 587.221, 975.677 586.321, 975.388 585.569 C 975.100 584.817, 975.325 583.917, 975.888 583.569 C 976.452 583.221, 976.659 582.275, 976.349 581.468 C 976.040 580.661, 976.340 580, 977.018 580 C 977.854 580, 978.057 579.035, 977.650 577 C 977.320 575.350, 977.392 574, 977.811 574 C 978.229 574, 978.657 573.100, 978.762 572 C 978.867 570.900, 979.024 569.212, 979.112 568.250 C 979.201 567.288, 979.700 565.957, 980.222 565.294 C 980.745 564.630, 980.882 563.618, 980.527 563.044 C 980.172 562.470, 980.367 562, 980.960 562 C 981.611 562, 981.789 561.009, 981.411 559.500 C 980.995 557.845, 981.200 557, 982.017 557 C 982.850 557, 983.058 556.040, 982.658 554.039 C 982.332 552.410, 982.519 550.797, 983.073 550.455 C 983.628 550.112, 983.808 548.970, 983.473 547.916 C 983.129 546.831, 983.336 546, 983.952 546 C 984.611 546, 984.792 545.018, 984.411 543.500 C 983.995 541.845, 984.200 541, 985.017 541 C 985.854 541, 986.057 540.036, 985.650 538 C 985.305 536.276, 985.473 535, 986.044 535 C 986.599 535, 986.767 533.920, 986.425 532.557 C 986.088 531.213, 986.161 529.548, 986.588 528.857 C 987.403 527.538, 987.979 524.042, 988.006 520.250 C 988.015 519.012, 988.489 518, 989.059 518 C 989.699 518, 989.872 516.496, 989.512 514.081 C 989.162 511.734, 989.359 509.896, 990.005 509.497 C 990.597 509.131, 990.808 507.970, 990.473 506.916 C 990.114 505.783, 990.337 505, 991.021 505 C 991.809 505, 991.967 503.763, 991.517 501.103 C 991.123 498.767, 991.275 496.948, 991.897 496.564 C 992.469 496.210, 992.669 494.595, 992.342 492.961 C 991.972 491.108, 992.164 490, 992.856 490 C 993.597 490, 993.751 488.463, 993.324 485.344 C 992.879 482.102, 993.016 480.892, 993.774 481.360 C 994.506 481.813, 994.870 480.305, 994.883 476.767 C 994.920 467.294, 995.130 465, 995.960 465 C 996.410 465, 996.776 462.413, 996.773 459.250 C 996.762 446.692, 996.999 443, 997.816 443 C 998.284 443, 998.527 440.300, 998.355 437 C 998.154 433.124, 998.431 431, 999.140 431 C 999.905 431, 1000.022 428.430, 999.529 422.500 C 999.070 416.994, 999.175 414, 999.827 414 C 1000.443 414, 1000.813 409.832, 1000.780 403.250 C 1000.751 397.337, 1000.924 375.625, 1001.166 355 C 1001.408 334.375, 1001.294 317.050, 1000.914 316.500 C 1000.534 315.950, 999.963 307.269, 999.645 297.208 C 999.327 287.148, 998.858 278.578, 998.602 278.165 C 998.347 277.752, 997.893 271.671, 997.594 264.652 C 997.295 257.634, 996.772 251.440, 996.431 250.889 C 996.091 250.337, 996.081 248.814, 996.410 247.504 C 996.738 246.194, 996.526 244.825, 995.939 244.462 C 995.351 244.099, 994.964 242.609, 995.079 241.151 C 995.193 239.693, 994.942 237.693, 994.520 236.707 C 994.098 235.721, 994.030 234.637, 994.368 234.299 C 994.706 233.961, 994.522 233.129, 993.960 232.451 C 993.397 231.773, 992.838 229.820, 992.718 228.111 C 992.598 226.402, 992.114 225.003, 991.643 225.002 C 991.172 225.001, 991.045 224.325, 991.362 223.500 C 991.678 222.675, 991.453 222, 990.862 222 C 990.270 222, 990.034 221.354, 990.337 220.565 C 990.640 219.775, 990.491 218.988, 990.005 218.815 C 989.520 218.642, 988.969 217.375, 988.781 216 C 988.401 213.222, 982.931 201.691, 981.744 201.165 C 981.328 200.980, 981.244 200.414, 981.557 199.908 C 981.870 199.401, 981.426 198.717, 980.569 198.388 C 979.712 198.059, 979.262 197.384, 979.569 196.888 C 979.876 196.392, 979.423 195.716, 978.563 195.386 C 977.704 195.056, 977 194.309, 977 193.727 C 977 192.509, 975.897 191.183, 969.857 185.143 C 964.334 179.620, 962.488 178, 961.718 178 C 961.380 178, 959.898 176.883, 958.426 175.519 C 956.953 174.154, 955.393 173.257, 954.960 173.525 C 954.526 173.793, 954.020 173.672, 953.835 173.256 C 953.284 172.013, 938.584 165.262, 935 164.606 C 933.625 164.355, 932.388 164.059, 932.250 163.949 C 932.112 163.840, 931.550 163.637, 931 163.500 C 930.450 163.363, 929.888 163.156, 929.750 163.042 C 929.612 162.927, 928.600 162.686, 927.500 162.506 C 926.400 162.326, 924.375 161.894, 923 161.544 C 921.625 161.195, 918.925 160.700, 917 160.444 C 915.075 160.187, 911.925 159.756, 910 159.484 C 908.075 159.213, 904.250 158.778, 901.500 158.519 C 898.750 158.259, 894.250 157.779, 891.500 157.451 C 888.750 157.123, 884.700 156.713, 882.500 156.539 C 877.233 156.125, 867.265 155.037, 863.500 154.466 C 857.712 153.589, 854.473 153.057, 851.500 152.498 C 848.061 151.851, 845.679 151.506, 838.045 150.549 C 835.045 150.173, 832.220 149.636, 831.767 149.356 C 831.314 149.076, 829.719 148.673, 828.222 148.459 C 826.725 148.245, 824.375 147.807, 823 147.484 C 821.625 147.161, 819.600 146.699, 818.500 146.457 C 814.685 145.617, 811.989 144.997, 809.750 144.446 C 808.513 144.141, 806.375 143.690, 805 143.443 C 802.575 143.008, 801.794 142.849, 795.570 141.521 C 793.959 141.177, 792.159 140.595, 791.570 140.227 C 790.982 139.859, 789.600 139.427, 788.500 139.267 C 787.400 139.107, 785.825 138.689, 785 138.337 C 784.175 137.986, 782.851 137.568, 782.059 137.409 C 781.266 137.251, 779.466 136.793, 778.059 136.392 C 776.651 135.991, 775.163 135.570, 774.750 135.457 C 774.337 135.343, 773.663 135.140, 773.250 135.007 C 772.837 134.873, 772.178 134.811, 771.785 134.870 C 771.391 134.929, 769.816 134.463, 768.285 133.835 C 766.753 133.207, 764.902 132.571, 764.172 132.423 C 763.441 132.275, 762.091 131.826, 761.172 131.426 C 760.252 131.026, 758.902 130.576, 758.172 130.426 C 757.441 130.276, 756.091 129.821, 755.172 129.413 C 754.252 129.006, 753.163 128.578, 752.750 128.461 C 752.337 128.345, 751.775 128.137, 751.500 128 C 751.225 127.862, 750.550 127.638, 750 127.500 C 749.450 127.362, 748.888 127.159, 748.750 127.048 C 748.612 126.938, 747.825 126.701, 747 126.523 C 746.175 126.344, 744.150 125.629, 742.500 124.933 C 738.936 123.430, 739.265 123.543, 735.500 122.530 C 733.850 122.086, 731.600 121.239, 730.500 120.647 C 729.400 120.055, 728.275 119.539, 728 119.500 C 727.725 119.461, 726.487 118.867, 725.250 118.179 C 724.013 117.492, 723 117.153, 723 117.427 C 723 118.003, 707.758 111.698, 703.890 109.521 C 702.455 108.714, 700.992 108.341, 700.640 108.693 C 700.288 109.045, 700 108.782, 700 108.108 C 700 107.434, 699.550 107.160, 699 107.500 C 698.450 107.840, 698 107.641, 698 107.059 C 698 106.477, 697.663 106.078, 697.250 106.173 C 696.837 106.268, 692.900 104.625, 688.500 102.523 C 684.100 100.421, 679.833 98.567, 679.018 98.405 C 678.203 98.242, 677.377 97.632, 677.183 97.048 C 676.988 96.465, 676.418 96.242, 675.915 96.553 C 675.412 96.864, 675 96.641, 675 96.059 C 675 95.477, 674.663 95.093, 674.250 95.206 C 673.837 95.319, 671.925 94.550, 670 93.498 C 668.075 92.445, 666.275 91.539, 666 91.484 C 665.725 91.429, 663.700 90.287, 661.500 88.946 C 659.300 87.605, 657.500 86.695, 657.500 86.924 C 657.500 87.153, 655.596 86.139, 653.270 84.670 C 650.943 83.202, 648.581 82, 648.020 82 C 647.459 82, 647 81.475, 647 80.833 C 647 80.192, 646.735 79.931, 646.412 80.255 C 645.823 80.843, 636.071 74.990, 630.581 70.753 C 628.976 69.514, 626.388 67.881, 624.831 67.125 C 623.274 66.369, 622 65.366, 622 64.895 C 622 64.425, 620.200 63.122, 618 62 C 615.800 60.878, 614 59.492, 614 58.921 C 614 58.349, 613.550 58.160, 613 58.500 C 612.450 58.840, 612 58.630, 612 58.034 C 612 57.438, 610.875 56.523, 609.500 56 C 608.125 55.477, 607 54.588, 607 54.025 C 607 53.461, 606.663 53.110, 606.250 53.244 C 605.438 53.508, 600.970 50.566, 597.905 47.750 C 596.857 46.788, 595.776 45.998, 595.503 45.996 C 595.230 45.994, 593.920 45.048, 592.593 43.894 C 591.265 42.739, 590.004 41.953, 589.790 42.147 C 589.577 42.341, 587.431 40.813, 585.021 38.750 C 582.611 36.688, 580.046 35, 579.320 35 C 578.594 35, 578 34.550, 578 34 C 578 33.450, 577.325 33, 576.500 33 C 575.675 33, 575 32.550, 575 32 C 575 31.450, 574.325 31, 573.500 31 C 572.675 31, 572 30.550, 572 30 C 572 29.450, 571.311 29, 570.469 29 C 569.626 29, 568.679 28.328, 568.364 27.506 C 568.048 26.684, 567.388 26.260, 566.895 26.565 C 566.403 26.869, 566 26.693, 566 26.173 C 566 25.653, 564.313 24.435, 562.250 23.466 C 560.188 22.497, 558.275 21.433, 558 21.101 C 557.725 20.769, 556.150 19.823, 554.500 19 C 552.850 18.177, 551.275 17.277, 551 17.002 C 549.451 15.447, 534.202 8.131, 533.654 8.679 C 533.294 9.039, 533 8.733, 533 8 C 533 7.267, 532.738 6.928, 532.418 7.248 C 531.846 7.821, 528.662 6.675, 520.214 2.855 C 516.540 1.194, 513.902 0.945, 501.714 1.109 C 488.464 1.287, 486.856 1.524, 478 4.609" fill="#1E3A5F"/>
  <!-- Pass 2 : interieur sky #4DA8DA -->
  <path d="M 589 41.378 C 589 41.585, 589.788 42.373, 590.750 43.128 C 592.336 44.371, 592.371 44.336, 591.128 42.750 C 589.821 41.084, 589 40.555, 589 41.378 M 496.500 72.535 C 494.850 73.373, 492.600 75.104, 491.500 76.382 C 484.637 84.360, 424.262 124.609, 392 142.714 C 303.829 192.196, 217.420 218.977, 116.981 227.951 C 105.146 229.009, 94.346 230.302, 92.981 230.826 C 89.632 232.111, 85.547 236.041, 83.555 239.893 C 81.428 244.007, 78.546 272.496, 76.411 310.500 C 75.191 332.231, 74.941 347.692, 75.415 372.182 C 76.926 450.329, 85.999 517.275, 105.274 592.500 C 112.325 620.018, 112.955 626.972, 109.168 635.420 C 106.105 642.253, 101.052 648.107, 94.421 652.509 C 91.321 654.566, 89.222 656.531, 89.756 656.875 C 90.289 657.219, 98.419 676.151, 107.822 698.946 C 119.853 728.113, 124.622 740.751, 123.916 741.601 C 123.143 742.533, 123.781 742.608, 126.707 741.928 C 132.576 740.566, 144.106 740.842, 149.614 742.478 C 156.527 744.531, 163.296 749.270, 167.228 754.811 C 169.058 757.390, 175.016 766.925, 180.469 776 C 252.827 896.438, 351.524 990.464, 473.627 1055.285 C 482.497 1059.993, 491.722 1064.414, 494.127 1065.108 C 496.532 1065.802, 499.388 1066.961, 500.473 1067.685 C 504.406 1070.308, 508.149 1069.109, 526.427 1059.375 C 713.507 959.747, 834.649 814.351, 893.342 619 C 927.085 506.692, 938.856 386.150, 927.904 265.080 C 925.840 242.263, 925.125 239.255, 920.845 235.373 C 917.285 232.145, 913.094 231.236, 893.500 229.447 C 846.528 225.156, 787.058 213.096, 740 198.318 C 680.992 179.787, 627.689 155.726, 591.779 131.410 C 569.049 116.019, 545.129 98.887, 526.500 84.654 C 508.628 70.999, 503.560 68.952, 496.500 72.535 M 125.813 156.683 C 126.534 156.972, 127.397 156.936, 127.729 156.604 C 128.061 156.272, 127.471 156.036, 126.417 156.079 C 125.252 156.127, 125.015 156.364, 125.813 156.683 M 105.750 158.662 C 106.438 158.940, 107.563 158.940, 108.250 158.662 C 108.938 158.385, 108.375 158.158, 107 158.158 C 105.625 158.158, 105.063 158.385, 105.750 158.662 M 92.750 159.662 C 93.438 159.940, 94.563 159.940, 95.250 159.662 C 95.938 159.385, 95.375 159.158, 94 159.158 C 92.625 159.158, 92.063 159.385, 92.750 159.662 M 39.437 182.250 L 36.500 185.500 39.750 182.563 C 42.779 179.825, 43.460 179, 42.687 179 C 42.515 179, 41.052 180.463, 39.437 182.250 M 967 182.313 C 967 182.485, 968.462 183.948, 970.250 185.563 L 973.500 188.500 970.563 185.250 C 967.825 182.221, 967 181.540, 967 182.313 M 6.079 288.583 C 6.127 289.748, 6.364 289.985, 6.683 289.188 C 6.972 288.466, 6.936 287.603, 6.604 287.271 C 6.272 286.939, 6.036 287.529, 6.079 288.583 M 1001.195 319.500 C 1001.215 321.150, 1001.439 321.704, 1001.693 320.731 C 1001.947 319.758, 1001.930 318.408, 1001.656 317.731 C 1001.382 317.054, 1001.175 317.850, 1001.195 319.500 M 1001.252 326.500 C 1001.263 328.700, 1001.468 329.482, 1001.707 328.238 C 1001.946 326.994, 1001.937 325.194, 1001.687 324.238 C 1001.437 323.282, 1001.241 324.300, 1001.252 326.500 M 4.232 335 C 4.232 336.925, 4.438 337.712, 4.689 336.750 C 4.941 335.788, 4.941 334.212, 4.689 333.250 C 4.438 332.288, 4.232 333.075, 4.232 335 M 1001.079 339.583 C 1001.127 340.748, 1001.364 340.985, 1001.683 340.188 C 1001.972 339.466, 1001.936 338.603, 1001.604 338.271 C 1001.272 337.939, 1001.036 338.529, 1001.079 339.583 M 1001.272 374 C 1001.272 376.475, 1001.467 377.488, 1001.706 376.250 C 1001.944 375.012, 1001.944 372.988, 1001.706 371.750 C 1001.467 370.512, 1001.272 371.525, 1001.272 374 M 4.079 379.583 C 4.127 380.748, 4.364 380.985, 4.683 380.188 C 4.972 379.466, 4.936 378.603, 4.604 378.271 C 4.272 377.939, 4.036 378.529, 4.079 379.583 M 1001.232 383 C 1001.232 384.925, 1001.438 385.712, 1001.689 384.750 C 1001.941 383.788, 1001.941 382.212, 1001.689 381.250 C 1001.438 380.288, 1001.232 381.075, 1001.232 383 M 1000.195 405.500 C 1000.215 407.150, 1000.439 407.704, 1000.693 406.731 C 1000.947 405.758, 1000.930 404.408, 1000.656 403.731 C 1000.382 403.054, 1000.175 403.850, 1000.195 405.500 M 1000.158 412 C 1000.158 413.375, 1000.385 413.938, 1000.662 413.250 C 1000.940 412.563, 1000.940 411.438, 1000.662 410.750 C 1000.385 410.063, 1000.158 410.625, 1000.158 412 M 999.286 426.500 C 999.294 429.250, 999.488 430.256, 999.718 428.736 C 999.947 427.216, 999.941 424.966, 999.704 423.736 C 999.467 422.506, 999.279 423.750, 999.286 426.500 M 998.079 437.583 C 998.127 438.748, 998.364 438.985, 998.683 438.188 C 998.972 437.466, 998.936 436.603, 998.604 436.271 C 998.272 435.939, 998.036 436.529, 998.079 437.583 M 9.079 458.583 C 9.127 459.748, 9.364 459.985, 9.683 459.188 C 9.972 458.466, 9.936 457.603, 9.604 457.271 C 9.272 456.939, 9.036 457.529, 9.079 458.583 M 996.158 463 C 996.158 464.375, 996.385 464.938, 996.662 464.250 C 996.940 463.563, 996.940 462.438, 996.662 461.750 C 996.385 461.063, 996.158 461.625, 996.158 463 M 995.079 469.583 C 995.127 470.748, 995.364 470.985, 995.683 470.188 C 995.972 469.466, 995.936 468.603, 995.604 468.271 C 995.272 467.939, 995.036 468.529, 995.079 469.583 M 994.158 480 C 994.158 481.375, 994.385 481.938, 994.662 481.250 C 994.940 480.563, 994.940 479.438, 994.662 478.750 C 994.385 478.063, 994.158 478.625, 994.158 480 M 993.079 488.583 C 993.127 489.748, 993.364 489.985, 993.683 489.188 C 993.972 488.466, 993.936 487.603, 993.604 487.271 C 993.272 486.939, 993.036 487.529, 993.079 488.583 M 991.158 503 C 991.158 504.375, 991.385 504.938, 991.662 504.250 C 991.940 503.563, 991.940 502.438, 991.662 501.750 C 991.385 501.063, 991.158 501.625, 991.158 503 M 989.079 516.583 C 989.127 517.748, 989.364 517.985, 989.683 517.188 C 989.972 516.466, 989.936 515.603, 989.604 515.271 C 989.272 514.939, 989.036 515.529, 989.079 516.583 M 791.355 536.998 C 780.285 539.300, 769.678 547.973, 765.943 557.779 C 757.886 578.930, 770.158 601.166, 792.046 605.078 C 800.401 606.571, 806.231 605.724, 813.863 601.910 C 828.847 594.423, 836.312 576.676, 831.037 561.083 C 826.038 546.306, 815.915 538.109, 800.871 536.655 C 797.917 536.370, 793.635 536.524, 791.355 536.998 M 985.158 539 C 985.158 540.375, 985.385 540.938, 985.662 540.250 C 985.940 539.563, 985.940 538.438, 985.662 537.750 C 985.385 537.063, 985.158 537.625, 985.158 539 M 982.158 555 C 982.158 556.375, 982.385 556.938, 982.662 556.250 C 982.940 555.563, 982.940 554.438, 982.662 553.750 C 982.385 553.063, 982.158 553.625, 982.158 555 M 977.158 578 C 977.158 579.375, 977.385 579.938, 977.662 579.250 C 977.940 578.563, 977.940 577.438, 977.662 576.750 C 977.385 576.063, 977.158 576.625, 977.158 578 M 53.500 650 C 54.495 651.100, 55.535 652, 55.810 652 C 56.085 652, 55.495 651.100, 54.500 650 C 53.505 648.900, 52.465 648, 52.190 648 C 51.915 648, 52.505 648.900, 53.500 650 M 81.250 657.689 C 82.213 657.941, 83.787 657.941, 84.750 657.689 C 85.713 657.438, 84.925 657.232, 83 657.232 C 81.075 657.232, 80.287 657.438, 81.250 657.689 M 734.807 666.439 C 725.911 669.852, 719.921 677.087, 703.263 704.540 C 658.070 779.019, 613.705 828.332, 545 880.453 C 529.119 892.501, 517.328 903.180, 514.034 908.500 C 513.012 910.150, 511.642 914.241, 510.989 917.590 C 509.995 922.693, 510.062 924.693, 511.401 929.921 C 515.441 945.689, 531.356 959, 546.171 959 C 552.205 959, 559.202 955.767, 572.870 946.662 C 655.017 891.944, 727.998 810.149, 774.206 721.011 C 781.434 707.067, 781.500 706.872, 781.479 699.220 C 781.453 689.475, 779.081 683.949, 771.799 676.672 C 764.295 669.174, 756.629 665.740, 746.500 665.339 C 741.291 665.133, 737.212 665.517, 734.807 666.439 M 114.872 748.750 C 113.629 750.336, 113.664 750.371, 115.250 749.128 C 116.213 748.373, 117 747.585, 117 747.378 C 117 746.555, 116.179 747.084, 114.872 748.750 M 831.872 893.750 C 830.629 895.336, 830.664 895.371, 832.250 894.128 C 833.916 892.821, 834.445 892, 833.622 892 C 833.415 892, 832.627 892.788, 831.872 893.750 M 193 918.378 C 193 918.585, 193.787 919.373, 194.750 920.128 C 196.336 921.371, 196.371 921.336, 195.128 919.750 C 193.821 918.084, 193 917.555, 193 918.378 M 798.872 934.750 C 797.629 936.336, 797.664 936.371, 799.250 935.128 C 800.916 933.821, 801.445 933, 800.622 933 C 800.415 933, 799.627 933.788, 798.872 934.750 M 790.872 943.750 C 789.629 945.336, 789.664 945.371, 791.250 944.128 C 792.916 942.821, 793.445 942, 792.622 942 C 792.415 942, 791.627 942.788, 790.872 943.750 M 786.872 947.750 C 785.629 949.336, 785.664 949.371, 787.250 948.128 C 788.916 946.821, 789.445 946, 788.622 946 C 788.415 946, 787.627 946.788, 786.872 947.750 M 780.437 955.250 L 777.500 958.500 780.750 955.563 C 782.538 953.948, 784 952.485, 784 952.313 C 784 951.540, 783.175 952.221, 780.437 955.250 M 229 959.378 C 229 959.585, 229.787 960.373, 230.750 961.128 C 232.336 962.371, 232.371 962.336, 231.128 960.750 C 229.821 959.084, 229 958.555, 229 959.378 M 771.405 964.250 L 769.500 966.500 771.750 964.595 C 772.987 963.547, 774 962.535, 774 962.345 C 774 961.545, 773.195 962.136, 771.405 964.250 M 236 966.500 C 237.292 967.875, 238.574 969, 238.849 969 C 239.124 969, 238.292 967.875, 237 966.500 C 235.708 965.125, 234.426 964, 234.151 964 C 233.876 964, 234.708 965.125, 236 966.500 M 763.872 971.750 C 762.629 973.336, 762.664 973.371, 764.250 972.128 C 765.916 970.821, 766.445 970, 765.622 970 C 765.415 970, 764.627 970.788, 763.872 971.750 M 751.453 984.250 L 747.500 988.500 751.750 984.547 C 755.702 980.871, 756.460 980, 755.703 980 C 755.540 980, 753.627 981.913, 751.453 984.250 M 253 983.378 C 253 983.585, 253.787 984.373, 254.750 985.128 C 256.336 986.371, 256.371 986.336, 255.128 984.750 C 253.821 983.084, 253 982.555, 253 983.378 M 743.872 991.750 C 742.629 993.336, 742.664 993.371, 744.250 992.128 C 745.916 990.821, 746.445 990, 745.622 990 C 745.415 990, 744.627 990.788, 743.872 991.750 M 734.405 1000.250 L 732.500 1002.500 734.750 1000.595 C 735.987 999.547, 737 998.535, 737 998.345 C 737 997.545, 736.195 998.136, 734.405 1000.250 M 270 999.378 C 270 999.585, 270.788 1000.373, 271.750 1001.128 C 273.336 1002.371, 273.371 1002.336, 272.128 1000.750 C 270.821 999.084, 270 998.555, 270 999.378 M 724.872 1008.750 C 723.629 1010.336, 723.664 1010.371, 725.250 1009.128 C 726.916 1007.821, 727.445 1007, 726.622 1007 C 726.415 1007, 725.627 1007.788, 724.872 1008.750 M 716.924 1015.750 L 714.500 1018.500 717.250 1016.076 C 719.820 1013.810, 720.459 1013, 719.674 1013 C 719.495 1013, 718.258 1014.237, 716.924 1015.750 M 709.872 1021.750 C 708.629 1023.336, 708.664 1023.371, 710.250 1022.128 C 711.916 1020.821, 712.445 1020, 711.622 1020 C 711.415 1020, 710.627 1020.788, 709.872 1021.750 M 694.405 1034.250 L 692.500 1036.500 694.750 1034.595 C 696.864 1032.805, 697.455 1032, 696.655 1032 C 696.465 1032, 695.453 1033.013, 694.405 1034.250 M 684.872 1041.750 C 683.629 1043.336, 683.664 1043.371, 685.250 1042.128 C 686.212 1041.373, 687 1040.585, 687 1040.378 C 687 1039.555, 686.179 1040.084, 684.872 1041.750" fill="#4DA8DA"/>
  <!-- Pass 4 : zones ombragees #418FB9 (bande droite + fragment sommet) -->
  <path d="M 498.078 72.095 C 496.745 72.627, 493.813 74.736, 491.560 76.782 C 489.308 78.827, 485.898 81.772, 483.983 83.328 C 480.858 85.864, 480.957 85.839, 484.947 83.078 C 487.393 81.385, 489.799 80, 490.295 80 C 490.790 80, 496.664 83.740, 503.348 88.312 C 525.896 103.734, 552.006 118.709, 576.500 130.269 C 587.760 135.583, 612.728 146.377, 611.884 145.566 C 611.673 145.363, 606.100 141.630, 599.500 137.271 C 581.997 125.711, 555.271 106.753, 533 90.101 C 507.834 71.284, 504.460 69.544, 498.078 72.095 M 472 91.617 C 467.875 94.662, 464.050 97.640, 463.500 98.235 C 462.187 99.656, 473.636 91.732, 477.500 88.546 C 482.743 84.222, 479.766 85.885, 472 91.617 M 460.405 100.155 C 459.962 100.870, 460.130 101.038, 460.845 100.595 C 461.998 99.883, 462.393 99, 461.559 99 C 461.316 99, 460.797 99.520, 460.405 100.155 M 452.124 105.484 C 448.617 107.886, 445.242 110.396, 444.624 111.062 C 444.006 111.728, 446.988 109.948, 451.250 107.106 C 455.512 104.264, 459 101.728, 459 101.470 C 459 100.773, 459.010 100.767, 452.124 105.484 M 436.987 115.634 C 431.031 119.579, 427.623 122.526, 432.500 119.514 C 440.689 114.458, 444.037 112, 442.737 112 C 442.592 112, 440.004 113.635, 436.987 115.634 M 427.405 122.155 C 426.962 122.870, 427.130 123.038, 427.845 122.595 C 428.998 121.883, 429.393 121, 428.559 121 C 428.316 121, 427.797 121.520, 427.405 122.155 M 422.250 125.115 C 418.841 127.298, 417.738 128.764, 420.750 127.108 C 423.044 125.847, 426.639 123.068, 426 123.049 C 425.725 123.040, 424.038 123.970, 422.250 125.115 M 415.441 129.555 C 413.577 131.049, 413.589 131.067, 415.750 130.020 C 416.988 129.420, 418 128.720, 418 128.465 C 418 127.700, 417.481 127.921, 415.441 129.555 M 410.441 132.555 C 408.577 134.049, 408.589 134.067, 410.750 133.020 C 411.988 132.420, 413 131.720, 413 131.465 C 413 130.700, 412.481 130.921, 410.441 132.555 M 405.441 135.555 C 403.577 137.049, 403.589 137.067, 405.750 136.020 C 406.988 135.420, 408 134.720, 408 134.465 C 408 133.700, 407.481 133.921, 405.441 135.555 M 400.441 138.555 C 398.577 140.049, 398.589 140.067, 400.750 139.020 C 401.988 138.420, 403 137.720, 403 137.465 C 403 136.700, 402.481 136.921, 400.441 138.555 M 392.750 142.572 C 389.012 144.600, 389.239 145.445, 393 143.500 C 394.650 142.647, 396 141.735, 396 141.474 C 396 140.831, 395.893 140.867, 392.750 142.572 M 383.750 147.572 C 380.012 149.600, 380.239 150.445, 384 148.500 C 385.650 147.647, 387 146.735, 387 146.474 C 387 145.831, 386.893 145.867, 383.750 147.572 M 614 147.059 C 616.470 148.753, 636.905 159.003, 637.733 158.963 C 638.530 158.925, 613.882 146.041, 613 146.034 C 612.725 146.032, 613.175 146.494, 614 147.059 M 368.750 155.563 C 365.038 157.469, 362 159.252, 362 159.526 C 362 159.801, 365.150 158.439, 369 156.500 C 372.850 154.561, 376 152.756, 376 152.487 C 376 151.817, 376.280 151.698, 368.750 155.563 M 348 166 C 347.175 166.533, 346.950 166.969, 347.500 166.969 C 348.050 166.969, 349.175 166.533, 350 166 C 350.825 165.467, 351.050 165.031, 350.500 165.031 C 349.950 165.031, 348.825 165.467, 348 166 M 651.333 165.667 C 651.700 166.033, 652.300 166.033, 652.667 165.667 C 653.033 165.300, 652.733 165, 652 165 C 651.267 165, 650.967 165.300, 651.333 165.667 M 660.333 169.667 C 660.700 170.033, 661.300 170.033, 661.667 169.667 C 662.033 169.300, 661.733 169, 661 169 C 660.267 169, 659.967 169.300, 660.333 169.667 M 334 172.500 C 332.625 173.286, 331.950 173.929, 332.500 173.929 C 333.050 173.929, 334.625 173.286, 336 172.500 C 337.375 171.714, 338.050 171.071, 337.500 171.071 C 336.950 171.071, 335.375 171.714, 334 172.500 M 668 173 C 668.825 173.533, 669.950 173.969, 670.500 173.969 C 671.050 173.969, 670.825 173.533, 670 173 C 669.175 172.467, 668.050 172.031, 667.500 172.031 C 666.950 172.031, 667.175 172.467, 668 173 M 325.333 176.667 C 325.700 177.033, 326.300 177.033, 326.667 176.667 C 327.033 176.300, 326.733 176, 326 176 C 325.267 176, 324.967 176.300, 325.333 176.667 M 676.333 176.667 C 676.700 177.033, 677.300 177.033, 677.667 176.667 C 678.033 176.300, 677.733 176, 677 176 C 676.267 176, 675.967 176.300, 676.333 176.667 M 681.333 178.667 C 681.700 179.033, 682.300 179.033, 682.667 178.667 C 683.033 178.300, 682.733 178, 682 178 C 681.267 178, 680.967 178.300, 681.333 178.667 M 318.333 179.667 C 318.700 180.033, 319.300 180.033, 319.667 179.667 C 320.033 179.300, 319.733 179, 319 179 C 318.267 179, 317.967 179.300, 318.333 179.667 M 313.333 181.667 C 313.700 182.033, 314.300 182.033, 314.667 181.667 C 315.033 181.300, 314.733 181, 314 181 C 313.267 181, 312.967 181.300, 313.333 181.667 M 689.333 181.667 C 689.700 182.033, 690.300 182.033, 690.667 181.667 C 691.033 181.300, 690.733 181, 690 181 C 689.267 181, 688.967 181.300, 689.333 181.667 M 694.333 183.667 C 694.700 184.033, 695.300 184.033, 695.667 183.667 C 696.033 183.300, 695.733 183, 695 183 C 694.267 183, 693.967 183.300, 694.333 183.667 M 306.333 184.667 C 306.700 185.033, 307.300 185.033, 307.667 184.667 C 308.033 184.300, 307.733 184, 307 184 C 306.267 184, 305.967 184.300, 306.333 184.667 M 303.333 185.667 C 303.700 186.033, 304.300 186.033, 304.667 185.667 C 305.033 185.300, 304.733 185, 304 185 C 303.267 185, 302.967 185.300, 303.333 185.667 M 699.333 185.667 C 699.700 186.033, 700.300 186.033, 700.667 185.667 C 701.033 185.300, 700.733 185, 700 185 C 699.267 185, 698.967 185.300, 699.333 185.667 M 299 187 C 298.175 187.533, 297.950 187.969, 298.500 187.969 C 299.050 187.969, 300.175 187.533, 301 187 C 301.825 186.467, 302.050 186.031, 301.500 186.031 C 300.950 186.031, 299.825 186.467, 299 187 M 702.333 186.667 C 702.700 187.033, 703.300 187.033, 703.667 186.667 C 704.033 186.300, 703.733 186, 703 186 C 702.267 186, 701.967 186.300, 702.333 186.667 M 295.333 188.667 C 295.700 189.033, 296.300 189.033, 296.667 188.667 C 297.033 188.300, 296.733 188, 296 188 C 295.267 188, 294.967 188.300, 295.333 188.667 M 707.333 188.667 C 707.700 189.033, 708.300 189.033, 708.667 188.667 C 709.033 188.300, 708.733 188, 708 188 C 707.267 188, 706.967 188.300, 707.333 188.667 M 710.333 189.667 C 710.700 190.033, 711.300 190.033, 711.667 189.667 C 712.033 189.300, 711.733 189, 711 189 C 710.267 189, 709.967 189.300, 710.333 189.667 M 290.333 190.667 C 290.700 191.033, 291.300 191.033, 291.667 190.667 C 292.033 190.300, 291.733 190, 291 190 C 290.267 190, 289.967 190.300, 290.333 190.667 M 713.333 190.667 C 713.700 191.033, 714.300 191.033, 714.667 190.667 C 715.033 190.300, 714.733 190, 714 190 C 713.267 190, 712.967 190.300, 713.333 190.667 M 287.333 191.667 C 287.700 192.033, 288.300 192.033, 288.667 191.667 C 289.033 191.300, 288.733 191, 288 191 C 287.267 191, 286.967 191.300, 287.333 191.667 M 716.333 191.667 C 716.700 192.033, 717.300 192.033, 717.667 191.667 C 718.033 191.300, 717.733 191, 717 191 C 716.267 191, 715.967 191.300, 716.333 191.667 M 283 193 C 282.175 193.533, 281.950 193.969, 282.500 193.969 C 283.050 193.969, 284.175 193.533, 285 193 C 285.825 192.467, 286.050 192.031, 285.500 192.031 C 284.950 192.031, 283.825 192.467, 283 193 M 719.333 192.667 C 719.700 193.033, 720.300 193.033, 720.667 192.667 C 721.033 192.300, 720.733 192, 720 192 C 719.267 192, 718.967 192.300, 719.333 192.667 M 722.333 193.667 C 722.700 194.033, 723.300 194.033, 723.667 193.667 C 724.033 193.300, 723.733 193, 723 193 C 722.267 193, 721.967 193.300, 722.333 193.667 M 279.333 194.667 C 279.700 195.033, 280.300 195.033, 280.667 194.667 C 281.033 194.300, 280.733 194, 280 194 C 279.267 194, 278.967 194.300, 279.333 194.667 M 725.333 194.667 C 725.700 195.033, 726.300 195.033, 726.667 194.667 C 727.033 194.300, 726.733 194, 726 194 C 725.267 194, 724.967 194.300, 725.333 194.667 M 276.333 195.667 C 276.700 196.033, 277.300 196.033, 277.667 195.667 C 278.033 195.300, 277.733 195, 277 195 C 276.267 195, 275.967 195.300, 276.333 195.667 M 728.333 195.667 C 728.700 196.033, 729.300 196.033, 729.667 195.667 C 730.033 195.300, 729.733 195, 729 195 C 728.267 195, 727.967 195.300, 728.333 195.667 M 273.333 196.667 C 273.700 197.033, 274.300 197.033, 274.667 196.667 C 275.033 196.300, 274.733 196, 274 196 C 273.267 196, 272.967 196.300, 273.333 196.667 M 731.333 196.667 C 731.700 197.033, 732.300 197.033, 732.667 196.667 C 733.033 196.300, 732.733 196, 732 196 C 731.267 196, 730.967 196.300, 731.333 196.667 M 270.333 197.667 C 270.700 198.033, 271.300 198.033, 271.667 197.667 C 272.033 197.300, 271.733 197, 271 197 C 270.267 197, 269.967 197.300, 270.333 197.667 M 734.333 197.667 C 734.700 198.033, 735.300 198.033, 735.667 197.667 C 736.033 197.300, 735.733 197, 735 197 C 734.267 197, 733.967 197.300, 734.333 197.667 M 267.333 198.667 C 267.700 199.033, 268.300 199.033, 268.667 198.667 C 269.033 198.300, 268.733 198, 268 198 C 267.267 198, 266.967 198.300, 267.333 198.667 M 737.333 198.667 C 737.700 199.033, 738.300 199.033, 738.667 198.667 C 739.033 198.300, 738.733 198, 738 198 C 737.267 198, 736.967 198.300, 737.333 198.667 M 264.333 199.667 C 264.700 200.033, 265.300 200.033, 265.667 199.667 C 266.033 199.300, 265.733 199, 265 199 C 264.267 199, 263.967 199.300, 264.333 199.667 M 740.333 199.667 C 740.700 200.033, 741.300 200.033, 741.667 199.667 C 742.033 199.300, 741.733 199, 741 199 C 740.267 199, 739.967 199.300, 740.333 199.667 M 261.333 200.667 C 261.700 201.033, 262.300 201.033, 262.667 200.667 C 263.033 200.300, 262.733 200, 262 200 C 261.267 200, 260.967 200.300, 261.333 200.667 M 743.813 200.683 C 744.534 200.972, 745.397 200.936, 745.729 200.604 C 746.061 200.272, 745.471 200.036, 744.417 200.079 C 743.252 200.127, 743.015 200.364, 743.813 200.683 M 255.500 202 C 254.239 202.542, 254.055 202.859, 255 202.859 C 255.825 202.859, 257.400 202.473, 258.500 202 C 259.761 201.458, 259.945 201.141, 259 201.141 C 258.175 201.141, 256.600 201.527, 255.500 202 M 747.333 201.667 C 747.700 202.033, 748.300 202.033, 748.667 201.667 C 749.033 201.300, 748.733 201, 748 201 C 747.267 201, 746.967 201.300, 747.333 201.667 M 750.333 202.667 C 750.700 203.033, 751.300 203.033, 751.667 202.667 C 752.033 202.300, 751.733 202, 751 202 C 750.267 202, 749.967 202.300, 750.333 202.667 M 251.333 203.667 C 251.700 204.033, 252.300 204.033, 252.667 203.667 C 253.033 203.300, 252.733 203, 252 203 C 251.267 203, 250.967 203.300, 251.333 203.667 M 754.333 203.667 C 754.700 204.033, 755.300 204.033, 755.667 203.667 C 756.033 203.300, 755.733 203, 755 203 C 754.267 203, 753.967 203.300, 754.333 203.667 M 247.813 204.683 C 248.534 204.972, 249.397 204.936, 249.729 204.604 C 250.061 204.272, 249.471 204.036, 248.417 204.079 C 247.252 204.127, 247.015 204.364, 247.813 204.683 M 757.333 204.667 C 757.700 205.033, 758.300 205.033, 758.667 204.667 C 759.033 204.300, 758.733 204, 758 204 C 757.267 204, 756.967 204.300, 757.333 204.667 M 244.333 205.667 C 244.700 206.033, 245.300 206.033, 245.667 205.667 C 246.033 205.300, 245.733 205, 245 205 C 244.267 205, 243.967 205.300, 244.333 205.667 M 761.333 205.667 C 761.700 206.033, 762.300 206.033, 762.667 205.667 C 763.033 205.300, 762.733 205, 762 205 C 761.267 205, 760.967 205.300, 761.333 205.667 M 240.813 206.683 C 241.534 206.972, 242.397 206.936, 242.729 206.604 C 243.061 206.272, 242.471 206.036, 241.417 206.079 C 240.252 206.127, 240.015 206.364, 240.813 206.683 M 764.333 206.667 C 764.700 207.033, 765.300 207.033, 765.667 206.667 C 766.033 206.300, 765.733 206, 765 206 C 764.267 206, 763.967 206.300, 764.333 206.667 M 237.333 207.667 C 237.700 208.033, 238.300 208.033, 238.667 207.667 C 239.033 207.300, 238.733 207, 238 207 C 237.267 207, 236.967 207.300, 237.333 207.667 M 768.333 207.667 C 768.700 208.033, 769.300 208.033, 769.667 207.667 C 770.033 207.300, 769.733 207, 769 207 C 768.267 207, 767.967 207.300, 768.333 207.667 M 233.333 208.667 C 233.700 209.033, 234.300 209.033, 234.667 208.667 C 235.033 208.300, 234.733 208, 234 208 C 233.267 208, 232.967 208.300, 233.333 208.667 M 771.813 208.683 C 772.534 208.972, 773.397 208.936, 773.729 208.604 C 774.061 208.272, 773.471 208.036, 772.417 208.079 C 771.252 208.127, 771.015 208.364, 771.813 208.683 M 229.813 209.683 C 230.534 209.972, 231.397 209.936, 231.729 209.604 C 232.061 209.272, 231.471 209.036, 230.417 209.079 C 229.252 209.127, 229.015 209.364, 229.813 209.683 M 775.813 209.683 C 776.534 209.972, 777.397 209.936, 777.729 209.604 C 778.061 209.272, 777.471 209.036, 776.417 209.079 C 775.252 209.127, 775.015 209.364, 775.813 209.683 M 225.813 210.683 C 226.534 210.972, 227.397 210.936, 227.729 210.604 C 228.061 210.272, 227.471 210.036, 226.417 210.079 C 225.252 210.127, 225.015 210.364, 225.813 210.683 M 779.813 210.683 C 780.534 210.972, 781.397 210.936, 781.729 210.604 C 782.061 210.272, 781.471 210.036, 780.417 210.079 C 779.252 210.127, 779.015 210.364, 779.813 210.683 M 221.813 211.683 C 222.534 211.972, 223.397 211.936, 223.729 211.604 C 224.061 211.272, 223.471 211.036, 222.417 211.079 C 221.252 211.127, 221.015 211.364, 221.813 211.683 M 784.333 211.667 C 784.700 212.033, 785.300 212.033, 785.667 211.667 C 786.033 211.300, 785.733 211, 785 211 C 784.267 211, 783.967 211.300, 784.333 211.667 M 217.813 212.683 C 218.534 212.972, 219.397 212.936, 219.729 212.604 C 220.061 212.272, 219.471 212.036, 218.417 212.079 C 217.252 212.127, 217.015 212.364, 217.813 212.683 M 788.333 212.667 C 788.700 213.033, 789.300 213.033, 789.667 212.667 C 790.033 212.300, 789.733 212, 789 212 C 788.267 212, 787.967 212.300, 788.333 212.667 M 213.333 213.667 C 213.700 214.033, 214.300 214.033, 214.667 213.667 C 215.033 213.300, 214.733 213, 214 213 C 213.267 213, 212.967 213.300, 213.333 213.667 M 792.333 213.667 C 792.700 214.033, 793.300 214.033, 793.667 213.667 C 794.033 213.300, 793.733 213, 793 213 C 792.267 213, 791.967 213.300, 792.333 213.667 M 209.333 214.667 C 209.700 215.033, 210.300 215.033, 210.667 214.667 C 211.033 214.300, 210.733 214, 210 214 C 209.267 214, 208.967 214.300, 209.333 214.667 M 796.813 214.683 C 797.534 214.972, 798.397 214.936, 798.729 214.604 C 799.061 214.272, 798.471 214.036, 797.417 214.079 C 796.252 214.127, 796.015 214.364, 796.813 214.683 M 204.813 215.683 C 205.534 215.972, 206.397 215.936, 206.729 215.604 C 207.061 215.272, 206.471 215.036, 205.417 215.079 C 204.252 215.127, 204.015 215.364, 204.813 215.683 M 800.813 215.683 C 801.534 215.972, 802.397 215.936, 802.729 215.604 C 803.061 215.272, 802.471 215.036, 801.417 215.079 C 800.252 215.127, 800.015 215.364, 800.813 215.683 M 199.813 216.683 C 200.534 216.972, 201.397 216.936, 201.729 216.604 C 202.061 216.272, 201.471 216.036, 200.417 216.079 C 199.252 216.127, 199.015 216.364, 199.813 216.683 M 804.750 216.662 C 805.438 216.940, 806.563 216.940, 807.250 216.662 C 807.938 216.385, 807.375 216.158, 806 216.158 C 804.625 216.158, 804.063 216.385, 804.750 216.662 M 194.813 217.683 C 195.534 217.972, 196.397 217.936, 196.729 217.604 C 197.061 217.272, 196.471 217.036, 195.417 217.079 C 194.252 217.127, 194.015 217.364, 194.813 217.683 M 810.813 217.683 C 811.534 217.972, 812.397 217.936, 812.729 217.604 C 813.061 217.272, 812.471 217.036, 811.417 217.079 C 810.252 217.127, 810.015 217.364, 810.813 217.683 M 189.813 218.683 C 190.534 218.972, 191.397 218.936, 191.729 218.604 C 192.061 218.272, 191.471 218.036, 190.417 218.079 C 189.252 218.127, 189.015 218.364, 189.813 218.683 M 815.813 218.683 C 816.534 218.972, 817.397 218.936, 817.729 218.604 C 818.061 218.272, 817.471 218.036, 816.417 218.079 C 815.252 218.127, 815.015 218.364, 815.813 218.683 M 184.813 219.683 C 185.534 219.972, 186.397 219.936, 186.729 219.604 C 187.061 219.272, 186.471 219.036, 185.417 219.079 C 184.252 219.127, 184.015 219.364, 184.813 219.683 M 820.813 219.683 C 821.534 219.972, 822.397 219.936, 822.729 219.604 C 823.061 219.272, 822.471 219.036, 821.417 219.079 C 820.252 219.127, 820.015 219.364, 820.813 219.683 M 179.813 220.683 C 180.534 220.972, 181.397 220.936, 181.729 220.604 C 182.061 220.272, 181.471 220.036, 180.417 220.079 C 179.252 220.127, 179.015 220.364, 179.813 220.683 M 825.813 220.683 C 826.534 220.972, 827.397 220.936, 827.729 220.604 C 828.061 220.272, 827.471 220.036, 826.417 220.079 C 825.252 220.127, 825.015 220.364, 825.813 220.683 M 173.269 221.693 C 174.242 221.947, 175.592 221.930, 176.269 221.656 C 176.946 221.382, 176.150 221.175, 174.500 221.195 C 172.850 221.215, 172.296 221.439, 173.269 221.693 M 830.813 221.683 C 831.534 221.972, 832.397 221.936, 832.729 221.604 C 833.061 221.272, 832.471 221.036, 831.417 221.079 C 830.252 221.127, 830.015 221.364, 830.813 221.683 M 167.813 222.683 C 168.534 222.972, 169.397 222.936, 169.729 222.604 C 170.061 222.272, 169.471 222.036, 168.417 222.079 C 167.252 222.127, 167.015 222.364, 167.813 222.683 M 836.269 222.693 C 837.242 222.947, 838.592 222.930, 839.269 222.656 C 839.946 222.382, 839.150 222.175, 837.500 222.195 C 835.850 222.215, 835.296 222.439, 836.269 222.693 M 160.750 223.662 C 161.438 223.940, 162.563 223.940, 163.250 223.662 C 163.938 223.385, 163.375 223.158, 162 223.158 C 160.625 223.158, 160.063 223.385, 160.750 223.662 M 842.269 223.693 C 843.242 223.947, 844.592 223.930, 845.269 223.656 C 845.946 223.382, 845.150 223.175, 843.500 223.195 C 841.850 223.215, 841.296 223.439, 842.269 223.693 M 154.269 224.693 C 155.242 224.947, 156.592 224.930, 157.269 224.656 C 157.946 224.382, 157.150 224.175, 155.500 224.195 C 153.850 224.215, 153.296 224.439, 154.269 224.693 M 848.750 224.662 C 849.438 224.940, 850.563 224.940, 851.250 224.662 C 851.938 224.385, 851.375 224.158, 850 224.158 C 848.625 224.158, 848.063 224.385, 848.750 224.662 M 146.250 225.689 C 147.213 225.941, 148.787 225.941, 149.750 225.689 C 150.713 225.438, 149.925 225.232, 148 225.232 C 146.075 225.232, 145.287 225.438, 146.250 225.689 M 855.269 225.693 C 856.242 225.947, 857.592 225.930, 858.269 225.656 C 858.946 225.382, 858.150 225.175, 856.500 225.195 C 854.850 225.215, 854.296 225.439, 855.269 225.693 M 137.250 226.689 C 138.213 226.941, 139.787 226.941, 140.750 226.689 C 141.713 226.438, 140.925 226.232, 139 226.232 C 137.075 226.232, 136.287 226.438, 137.250 226.689 M 861.269 226.693 C 862.242 226.947, 863.592 226.930, 864.269 226.656 C 864.946 226.382, 864.150 226.175, 862.500 226.195 C 860.850 226.215, 860.296 226.439, 861.269 226.693 M 129.250 227.689 C 130.213 227.941, 131.787 227.941, 132.750 227.689 C 133.713 227.438, 132.925 227.232, 131 227.232 C 129.075 227.232, 128.287 227.438, 129.250 227.689 M 867.989 229.322 C 869.029 231.891, 872.321 262.091, 874.713 291 C 876.870 317.067, 877.165 401.760, 875.186 427 C 869.944 493.875, 860.590 549.056, 845.029 604.897 C 791.648 796.452, 676.251 952.444, 509.815 1058.033 L 498.131 1065.446 500.815 1067.216 C 504.842 1069.872, 506.875 1069.469, 517.639 1063.881 C 661.907 988.989, 767.283 887.328, 837.291 755.500 C 882.504 670.362, 912.916 568.749, 925.431 461 C 932.990 395.931, 933.744 337.428, 927.913 268.500 C 924.847 232.260, 925.533 233.036, 893.900 230.005 C 882.680 228.930, 872.062 227.847, 870.304 227.597 C 867.354 227.178, 867.176 227.311, 867.989 229.322 M 117.264 228.718 C 118.784 228.947, 121.034 228.941, 122.264 228.704 C 123.494 228.467, 122.250 228.279, 119.500 228.286 C 116.750 228.294, 115.744 228.488, 117.264 228.718 M 105.264 229.718 C 106.784 229.947, 109.034 229.941, 110.264 229.704 C 111.494 229.467, 110.250 229.279, 107.500 229.286 C 104.750 229.294, 103.744 229.488, 105.264 229.718 M 95.750 230.662 C 96.438 230.940, 97.563 230.940, 98.250 230.662 C 98.938 230.385, 98.375 230.158, 97 230.158 C 95.625 230.158, 95.063 230.385, 95.750 230.662 M 87.368 235.368 C 84.966 237.771, 83 240.313, 83 241.016 C 83 241.720, 84.023 240.777, 85.274 238.922 C 86.524 237.066, 89.066 234.524, 90.922 233.274 C 92.777 232.023, 93.720 231, 93.016 231 C 92.313 231, 89.771 232.966, 87.368 235.368 M 82.079 244.583 C 82.127 245.748, 82.364 245.985, 82.683 245.188 C 82.972 244.466, 82.936 243.603, 82.604 243.271 C 82.272 242.939, 82.036 243.529, 82.079 244.583 M 81.195 252.500 C 81.215 254.150, 81.439 254.704, 81.693 253.731 C 81.947 252.758, 81.930 251.408, 81.656 250.731 C 81.382 250.054, 81.175 250.850, 81.195 252.500 M 80.195 262.500 C 80.215 264.150, 80.439 264.704, 80.693 263.731 C 80.947 262.758, 80.930 261.408, 80.656 260.731 C 80.382 260.054, 80.175 260.850, 80.195 262.500 M 79.252 272.500 C 79.263 274.700, 79.468 275.482, 79.707 274.238 C 79.946 272.994, 79.937 271.194, 79.687 270.238 C 79.437 269.282, 79.241 270.300, 79.252 272.500 M 78.252 284.500 C 78.263 286.700, 78.468 287.482, 78.707 286.238 C 78.946 284.994, 78.937 283.194, 78.687 282.238 C 78.437 281.282, 78.241 282.300, 78.252 284.500 M 77.286 298.500 C 77.294 301.250, 77.488 302.256, 77.718 300.736 C 77.947 299.216, 77.941 296.966, 77.704 295.736 C 77.467 294.506, 77.279 295.750, 77.286 298.500 M 76.328 317.500 C 76.333 321.350, 76.513 322.802, 76.730 320.728 C 76.946 318.653, 76.943 315.503, 76.722 313.728 C 76.501 311.952, 76.324 313.650, 76.328 317.500 M 75.415 357 C 75.415 367.175, 75.564 371.337, 75.745 366.250 C 75.927 361.162, 75.927 352.837, 75.745 347.750 C 75.564 342.662, 75.415 346.825, 75.415 357 M 76.336 399 C 76.336 403.125, 76.513 404.813, 76.728 402.750 C 76.944 400.688, 76.944 397.313, 76.728 395.250 C 76.513 393.188, 76.336 394.875, 76.336 399 M 77.286 417.500 C 77.294 420.250, 77.488 421.256, 77.718 419.736 C 77.947 418.216, 77.941 415.966, 77.704 414.736 C 77.467 413.506, 77.279 414.750, 77.286 417.500 M 78.232 432 C 78.232 433.925, 78.438 434.712, 78.689 433.750 C 78.941 432.788, 78.941 431.212, 78.689 430.250 C 78.438 429.288, 78.232 430.075, 78.232 432 M 79.232 443 C 79.232 444.925, 79.438 445.712, 79.689 444.750 C 79.941 443.788, 79.941 442.212, 79.689 441.250 C 79.438 440.288, 79.232 441.075, 79.232 443 M 80.232 454 C 80.232 455.925, 80.438 456.712, 80.689 455.750 C 80.941 454.788, 80.941 453.212, 80.689 452.250 C 80.438 451.288, 80.232 452.075, 80.232 454 M 81.195 462.500 C 81.215 464.150, 81.439 464.704, 81.693 463.731 C 81.947 462.758, 81.930 461.408, 81.656 460.731 C 81.382 460.054, 81.175 460.850, 81.195 462.500 M 82.158 471 C 82.158 472.375, 82.385 472.938, 82.662 472.250 C 82.940 471.563, 82.940 470.438, 82.662 469.750 C 82.385 469.063, 82.158 469.625, 82.158 471 M 83.158 479 C 83.158 480.375, 83.385 480.938, 83.662 480.250 C 83.940 479.563, 83.940 478.438, 83.662 477.750 C 83.385 477.063, 83.158 477.625, 83.158 479 M 84.195 486.500 C 84.215 488.150, 84.439 488.704, 84.693 487.731 C 84.947 486.758, 84.930 485.408, 84.656 484.731 C 84.382 484.054, 84.175 484.850, 84.195 486.500 M 85.195 493.500 C 85.215 495.150, 85.439 495.704, 85.693 494.731 C 85.947 493.758, 85.930 492.408, 85.656 491.731 C 85.382 491.054, 85.175 491.850, 85.195 493.500 M 86.158 500 C 86.158 501.375, 86.385 501.938, 86.662 501.250 C 86.940 500.563, 86.940 499.438, 86.662 498.750 C 86.385 498.063, 86.158 498.625, 86.158 500 M 87.158 506 C 87.158 507.375, 87.385 507.938, 87.662 507.250 C 87.940 506.563, 87.940 505.438, 87.662 504.750 C 87.385 504.063, 87.158 504.625, 87.158 506 M 88.079 512.583 C 88.127 513.748, 88.364 513.985, 88.683 513.188 C 88.972 512.466, 88.936 511.603, 88.604 511.271 C 88.272 510.939, 88.036 511.529, 88.079 512.583 M 89.079 518.583 C 89.127 519.748, 89.364 519.985, 89.683 519.188 C 89.972 518.466, 89.936 517.603, 89.604 517.271 C 89.272 516.939, 89.036 517.529, 89.079 518.583 M 90.158 524 C 90.158 525.375, 90.385 525.938, 90.662 525.250 C 90.940 524.563, 90.940 523.438, 90.662 522.750 C 90.385 522.063, 90.158 522.625, 90.158 524 M 91.079 529.583 C 91.127 530.748, 91.364 530.985, 91.683 530.188 C 91.972 529.466, 91.936 528.603, 91.604 528.271 C 91.272 527.939, 91.036 528.529, 91.079 529.583 M 92.079 534.583 C 92.127 535.748, 92.364 535.985, 92.683 535.188 C 92.972 534.466, 92.936 533.603, 92.604 533.271 C 92.272 532.939, 92.036 533.529, 92.079 534.583 M 93.079 539.583 C 93.127 540.748, 93.364 540.985, 93.683 540.188 C 93.972 539.466, 93.936 538.603, 93.604 538.271 C 93.272 537.939, 93.036 538.529, 93.079 539.583 M 94.079 544.583 C 94.127 545.748, 94.364 545.985, 94.683 545.188 C 94.972 544.466, 94.936 543.603, 94.604 543.271 C 94.272 542.939, 94.036 543.529, 94.079 544.583 M 95 549 C 95 549.733, 95.300 550.033, 95.667 549.667 C 96.033 549.300, 96.033 548.700, 95.667 548.333 C 95.300 547.967, 95 548.267, 95 549 M 96 554 C 96 554.733, 96.300 555.033, 96.667 554.667 C 97.033 554.300, 97.033 553.700, 96.667 553.333 C 96.300 552.967, 96 553.267, 96 554 M 97.079 558.583 C 97.127 559.748, 97.364 559.985, 97.683 559.188 C 97.972 558.466, 97.936 557.603, 97.604 557.271 C 97.272 556.939, 97.036 557.529, 97.079 558.583 M 98 563 C 98 563.733, 98.300 564.033, 98.667 563.667 C 99.033 563.300, 99.033 562.700, 98.667 562.333 C 98.300 561.967, 98 562.267, 98 563 M 99 568 C 99 568.733, 99.300 569.033, 99.667 568.667 C 100.033 568.300, 100.033 567.700, 99.667 567.333 C 99.300 566.967, 99 567.267, 99 568 M 100 572 C 100 572.733, 100.300 573.033, 100.667 572.667 C 101.033 572.300, 101.033 571.700, 100.667 571.333 C 100.300 570.967, 100 571.267, 100 572 M 101 576 C 101 576.733, 101.300 577.033, 101.667 576.667 C 102.033 576.300, 102.033 575.700, 101.667 575.333 C 101.300 574.967, 101 575.267, 101 576 M 102 580 C 102 580.733, 102.300 581.033, 102.667 580.667 C 103.033 580.300, 103.033 579.700, 102.667 579.333 C 102.300 578.967, 102 579.267, 102 580 M 103 584 C 103 584.733, 103.300 585.033, 103.667 584.667 C 104.033 584.300, 104.033 583.700, 103.667 583.333 C 103.300 582.967, 103 583.267, 103 584 M 104 588 C 104 588.733, 104.300 589.033, 104.667 588.667 C 105.033 588.300, 105.033 587.700, 104.667 587.333 C 104.300 586.967, 104 587.267, 104 588 M 105 592 C 105 592.733, 105.300 593.033, 105.667 592.667 C 106.033 592.300, 106.033 591.700, 105.667 591.333 C 105.300 590.967, 105 591.267, 105 592 M 106 596 C 106 596.733, 106.300 597.033, 106.667 596.667 C 107.033 596.300, 107.033 595.700, 106.667 595.333 C 106.300 594.967, 106 595.267, 106 596 M 107 600 C 107 600.733, 107.300 601.033, 107.667 600.667 C 108.033 600.300, 108.033 599.700, 107.667 599.333 C 107.300 598.967, 107 599.267, 107 600 M 108 603 C 108 603.733, 108.300 604.033, 108.667 603.667 C 109.033 603.300, 109.033 602.700, 108.667 602.333 C 108.300 601.967, 108 602.267, 108 603 M 109 607 C 109 607.733, 109.300 608.033, 109.667 607.667 C 110.033 607.300, 110.033 606.700, 109.667 606.333 C 109.300 605.967, 109 606.267, 109 607 M 110 611 C 110 611.733, 110.300 612.033, 110.667 611.667 C 111.033 611.300, 111.033 610.700, 110.667 610.333 C 110.300 609.967, 110 610.267, 110 611 M 111.079 615.583 C 111.127 616.748, 111.364 616.985, 111.683 616.188 C 111.972 615.466, 111.936 614.603, 111.604 614.271 C 111.272 613.939, 111.036 614.529, 111.079 615.583 M 112.232 624 C 112.232 625.925, 112.438 626.712, 112.689 625.750 C 112.941 624.788, 112.941 623.212, 112.689 622.250 C 112.438 621.288, 112.232 622.075, 112.232 624 M 111.079 630.583 C 111.127 631.748, 111.364 631.985, 111.683 631.188 C 111.972 630.466, 111.936 629.603, 111.604 629.271 C 111.272 628.939, 111.036 629.529, 111.079 630.583 M 110 634 C 110 634.733, 110.300 635.033, 110.667 634.667 C 111.033 634.300, 111.033 633.700, 110.667 633.333 C 110.300 632.967, 110 633.267, 110 634 M 106.405 641.155 C 105.962 641.870, 106.130 642.038, 106.845 641.595 C 107.480 641.203, 108 640.684, 108 640.441 C 108 639.607, 107.117 640.002, 106.405 641.155 M 100.946 647.750 L 97.500 651.500 101.250 648.054 C 104.740 644.846, 105.460 644, 104.696 644 C 104.529 644, 102.842 645.688, 100.946 647.750 M 94.405 653.155 C 93.962 653.870, 94.130 654.038, 94.845 653.595 C 95.480 653.203, 96 652.684, 96 652.441 C 96 651.607, 95.117 652.002, 94.405 653.155 M 91.405 655.155 C 90.962 655.870, 91.130 656.038, 91.845 655.595 C 92.480 655.203, 93 654.684, 93 654.441 C 93 653.607, 92.117 654.002, 91.405 655.155 M 130.250 740.689 C 131.213 740.941, 132.787 740.941, 133.750 740.689 C 134.713 740.438, 133.925 740.232, 132 740.232 C 130.075 740.232, 129.287 740.438, 130.250 740.689 M 140.264 740.718 C 141.784 740.947, 144.034 740.941, 145.264 740.704 C 146.494 740.467, 145.250 740.279, 142.500 740.286 C 139.750 740.294, 138.744 740.488, 140.264 740.718 M 148.333 741.667 C 148.700 742.033, 149.300 742.033, 149.667 741.667 C 150.033 741.300, 149.733 741, 149 741 C 148.267 741, 147.967 741.300, 148.333 741.667 M 151.333 742.667 C 151.700 743.033, 152.300 743.033, 152.667 742.667 C 153.033 742.300, 152.733 742, 152 742 C 151.267 742, 150.967 742.300, 151.333 742.667 M 156 744.430 C 156 744.705, 156.900 745.411, 158 746 C 159.100 746.589, 160 746.845, 160 746.570 C 160 746.295, 159.100 745.589, 158 745 C 156.900 744.411, 156 744.155, 156 744.430 M 165.520 752.250 C 167.667 754.862, 169.584 757, 169.780 757 C 170.496 757, 166.152 751.444, 163.916 749.500 C 162.651 748.400, 163.373 749.638, 165.520 752.250 M 171 760 C 171.589 761.100, 172.295 762, 172.570 762 C 172.845 762, 172.589 761.100, 172 760 C 171.411 758.900, 170.705 758, 170.430 758 C 170.155 758, 170.411 758.900, 171 760 M 174 765 C 174.589 766.100, 175.295 767, 175.570 767 C 175.845 767, 175.589 766.100, 175 765 C 174.411 763.900, 173.705 763, 173.430 763 C 173.155 763, 173.411 763.900, 174 765 M 177 770 C 177.589 771.100, 178.295 772, 178.570 772 C 178.845 772, 178.589 771.100, 178 770 C 177.411 768.900, 176.705 768, 176.430 768 C 176.155 768, 176.411 768.900, 177 770 M 180 775 C 180.589 776.100, 181.295 777, 181.570 777 C 181.845 777, 181.589 776.100, 181 775 C 180.411 773.900, 179.705 773, 179.430 773 C 179.155 773, 179.411 773.900, 180 775 M 182.500 779 C 182.840 779.550, 183.343 780, 183.618 780 C 183.893 780, 183.840 779.550, 183.500 779 C 183.160 778.450, 182.657 778, 182.382 778 C 182.107 778, 182.160 778.450, 182.500 779 M 185.500 784 C 185.840 784.550, 186.343 785, 186.618 785 C 186.893 785, 186.840 784.550, 186.500 784 C 186.160 783.450, 185.657 783, 185.382 783 C 185.107 783, 185.160 783.450, 185.500 784 M 188 788 C 188.589 789.100, 189.295 790, 189.570 790 C 189.845 790, 189.589 789.100, 189 788 C 188.411 786.900, 187.705 786, 187.430 786 C 187.155 786, 187.411 786.900, 188 788 M 190.500 792 C 190.840 792.550, 191.343 793, 191.618 793 C 191.893 793, 191.840 792.550, 191.500 792 C 191.160 791.450, 190.657 791, 190.382 791 C 190.107 791, 190.160 791.450, 190.500 792 M 193.524 796.566 C 194.453 798.252, 196.103 800.727, 197.190 802.066 L 199.167 804.500 197.476 801.434 C 196.547 799.748, 194.897 797.273, 193.810 795.934 L 191.833 793.500 193.524 796.566 M 199.500 806 C 199.840 806.550, 200.343 807, 200.618 807 C 200.893 807, 200.840 806.550, 200.500 806 C 200.160 805.450, 199.657 805, 199.382 805 C 199.107 805, 199.160 805.450, 199.500 806 M 201.500 809 C 201.840 809.550, 202.343 810, 202.618 810 C 202.893 810, 202.840 809.550, 202.500 809 C 202.160 808.450, 201.657 808, 201.382 808 C 201.107 808, 201.160 808.450, 201.500 809 M 207 817 C 209.241 820.300, 211.300 823, 211.575 823 C 211.850 823, 210.241 820.300, 208 817 C 205.759 813.700, 203.700 811, 203.425 811 C 203.150 811, 204.759 813.700, 207 817 M 214 827 C 215.175 828.650, 216.361 830, 216.636 830 C 216.911 830, 216.175 828.650, 215 827 C 213.825 825.350, 212.639 824, 212.364 824 C 212.089 824, 212.825 825.350, 214 827 M 217 831.378 C 217 831.585, 217.787 832.373, 218.750 833.128 C 220.336 834.371, 220.371 834.336, 219.128 832.750 C 217.821 831.084, 217 830.555, 217 831.378 M 222.921 839 C 224.616 841.475, 227.163 844.850, 228.581 846.500 C 230.562 848.804, 230.445 848.456, 228.079 845 C 226.384 842.525, 223.837 839.150, 222.419 837.500 C 220.438 835.196, 220.555 835.544, 222.921 839 M 235.616 856.044 C 238.228 859.369, 241.887 863.756, 243.747 865.794 C 245.607 867.832, 243.676 865.112, 239.455 859.750 C 235.235 854.388, 231.576 850, 231.324 850 C 231.073 850, 233.004 852.720, 235.616 856.044 M 248.500 872 C 249.495 873.100, 250.535 874, 250.810 874 C 251.085 874, 250.495 873.100, 249.500 872 C 248.505 870.900, 247.465 870, 247.190 870 C 246.915 870, 247.505 870.900, 248.500 872 M 256.151 881.189 C 259.093 884.593, 263.675 889.655, 266.333 892.439 C 268.992 895.222, 266.792 892.438, 261.446 886.250 C 256.100 880.063, 251.518 875, 251.264 875 C 251.010 875, 253.209 877.785, 256.151 881.189 M 284.188 912 C 297.305 926.169, 321.263 948.922, 336.500 961.682 C 347.435 970.840, 343.766 967.353, 321.051 947 C 311.537 938.475, 296.539 924.075, 287.721 915 C 273.189 900.043, 272.858 899.762, 284.188 912 M 348 971.500 C 349.292 972.875, 350.574 974, 350.849 974 C 351.124 974, 350.292 972.875, 349 971.500 C 347.708 970.125, 346.426 969, 346.151 969 C 345.876 969, 346.708 970.125, 348 971.500 M 355 977.006 C 364.800 985.934, 410.435 1018.467, 426.500 1027.979 C 434.309 1032.602, 429.248 1028.996, 411.222 1017.092 C 395.289 1006.570, 375.517 992.337, 357 978.059 C 353.822 975.609, 352.978 975.164, 355 977.006 M 432.500 1031.518 C 433.600 1032.414, 435.400 1033.588, 436.500 1034.128 L 438.500 1035.110 436.500 1033.482 C 435.400 1032.586, 433.600 1031.412, 432.500 1030.872 L 430.500 1029.890 432.500 1031.518 M 439 1035.318 C 439 1035.601, 444.063 1038.730, 450.250 1042.270 C 463.887 1050.072, 466 1051.195, 466 1050.641 C 466 1050.404, 461.387 1047.603, 455.750 1044.416 C 450.113 1041.228, 444.038 1037.761, 442.250 1036.711 C 440.462 1035.662, 439 1035.034, 439 1035.318 M 469 1052.480 C 469 1052.755, 473.050 1055.014, 478 1057.500 C 482.950 1059.986, 487 1061.795, 487 1061.520 C 487 1061.245, 482.950 1058.986, 478 1056.500 C 473.050 1054.014, 469 1052.205, 469 1052.480 M 488.523 1062.902 C 489.060 1063.428, 490.850 1064.179, 492.500 1064.570 C 496.370 1065.488, 495.501 1064.635, 491.023 1063.121 C 489.110 1062.475, 487.985 1062.376, 488.523 1062.902" fill="#418FB9"/>
  <!-- Pass 3 : reflet courbe blanc #FFFFFF -->
  <path d="M 734.807 666.439 C 725.911 669.852, 719.921 677.087, 703.263 704.540 C 658.070 779.019, 613.705 828.332, 545 880.453 C 529.119 892.501, 517.328 903.180, 514.034 908.500 C 513.012 910.150, 511.642 914.241, 510.989 917.590 C 509.995 922.693, 510.062 924.693, 511.401 929.921 C 515.441 945.689, 531.356 959, 546.171 959 C 552.205 959, 559.202 955.767, 572.870 946.662 C 655.017 891.944, 727.998 810.149, 774.206 721.011 C 781.434 707.067, 781.500 706.872, 781.479 699.220 C 781.453 689.475, 779.081 683.949, 771.799 676.672 C 764.295 669.174, 756.629 665.740, 746.500 665.339 C 741.291 665.133, 737.212 665.517, 734.807 666.439" fill="#FFFFFF"/>
  <!-- Highlight : cercle blanc -->
  <circle cx="798" cy="571" r="35.00" fill="#FFFFFF"/>
</svg>
